<svg width="17" height="17" viewBox="0 0 17 17" fill="none" xmlns="http://www.w3.org/2000/svg">
<path d="M16.4059 12.3255L14.0874 10.0118C13.2594 9.18553 11.8517 9.51608 11.5205 10.5902C11.2721 11.3339 10.444 11.7471 9.6988 11.5818C8.04273 11.1686 5.80702 9.02027 5.393 7.28504C5.14459 6.54134 5.64141 5.71504 6.38665 5.46718C7.4631 5.13666 7.79431 3.73195 6.96628 2.90565L4.64777 0.59201C3.98533 0.0136007 2.99169 0.0136007 2.41206 0.59201L0.838785 2.16198C-0.734489 3.81458 1.00439 8.19397 4.89618 12.0776C8.78796 15.9612 13.1766 17.7791 14.8326 16.1264L16.4059 14.5565C16.9856 13.8954 16.9856 12.9039 16.4059 12.3255Z" fill="white"/>
</svg>
