<svg width="15" height="13" viewBox="0 0 15 13" fill="none" xmlns="http://www.w3.org/2000/svg">
<path fill-rule="evenodd" clip-rule="evenodd" d="M12.8315 0.936978C12.8011 0.950835 11.1062 2.76287 9.06505 4.96374L5.35377 8.96529L3.51813 6.98808C1.78643 5.12279 1.67699 5.01084 1.58563 5.01084C1.49592 5.01084 1.44037 5.06315 0.834154 5.71847C0.277166 6.32057 0.179565 6.43912 0.179565 6.51349C0.179565 6.5897 0.499685 6.94616 2.68373 9.30165C4.06101 10.7871 5.22333 12.0227 5.26663 12.0474C5.32855 12.0828 5.36117 12.0853 5.41958 12.0592C5.4604 12.041 7.47695 9.88885 9.90079 7.27666C13.7624 3.11493 14.3078 2.51637 14.3078 2.43965C14.3078 2.36499 14.2113 2.24837 13.6524 1.64728C13.292 1.25963 12.9722 0.935551 12.9419 0.927136C12.9115 0.918691 12.8618 0.923122 12.8315 0.936978Z" fill="#8787D2"/>
</svg>
