<svg width="20" height="20" fill="none" xmlns="http://www.w3.org/2000/svg"><path d="M16.435 5H3.565c-.26 0-.502.066-.718.173l6.833 6.484a.552.552 0 0 0 .738 0l6.8-6.45A1.61 1.61 0 0 0 16.435 5Z" fill="url(#a)"/><path d="M2.131 5.895A1.41 1.41 0 0 0 2 6.487v7.261c0 .267.08.514.21.73l4.482-4.255-4.56-4.328Z" fill="url(#b)"/><path d="m12.608 10.98-1.45 1.38a1.636 1.636 0 0 1-2.216 0l-1.51-1.435L3 15.129c.176.065.365.104.565.104h12.87c.194 0 .38-.038.551-.1l-4.378-4.152Z" fill="url(#c)"/><path d="m17.895 5.964-4.545 4.314 4.433 4.21c.134-.218.217-.47.217-.74V6.485c0-.184-.04-.359-.105-.522Z" fill="url(#d)"/><defs><radialGradient id="a" cx="0" cy="0" r="1" gradientUnits="userSpaceOnUse" gradientTransform="matrix(-6.90853 0 0 -56.1436 10.055 8.4)"><stop stop-color="#46CDAC"/><stop offset="1" stop-color="#46CDAC"/></radialGradient><radialGradient id="b" cx="0" cy="0" r="1" gradientUnits="userSpaceOnUse" gradientTransform="matrix(-2.25564 0 0 -70.8875 4.353 10.187)"><stop stop-color="#46CDAC"/><stop offset="1" stop-color="#46CDAC"/></radialGradient><radialGradient id="c" cx="0" cy="0" r="1" gradientUnits="userSpaceOnUse" gradientTransform="matrix(-6.72356 0 0 -35.5781 10.015 13.079)"><stop stop-color="#46CDAC"/><stop offset="1" stop-color="#46CDAC"/></radialGradient><radialGradient id="d" cx="0" cy="0" r="1" gradientUnits="userSpaceOnUse" gradientTransform="matrix(-2.23558 0 0 -70.397 15.682 10.226)"><stop stop-color="#46CDAC"/><stop offset="1" stop-color="#46CDAC"/></radialGradient></defs></svg>