<svg width="32" height="32" viewBox="0 0 32 32" fill="none" xmlns="http://www.w3.org/2000/svg"><circle cx="16" cy="16" r="16" fill="#2787F5"/><g clip-path="url(#clip0)"><path d="M22.332 17.6224C22.0216 17.2304 22.1104 17.056 22.332 16.7056C22.336 16.7016 24.8984 13.1608 25.1624 11.96L25.164 11.9592C25.2952 11.5216 25.164 11.2 24.5296 11.2H22.4304C21.896 11.2 21.6496 11.476 21.5176 11.7848C21.5176 11.7848 20.4488 14.3432 18.9368 16.0016C18.4488 16.4808 18.2232 16.6344 17.9568 16.6344C17.8256 16.6344 17.6216 16.4808 17.6216 16.0432V11.9592C17.6216 11.4344 17.472 11.2 17.0296 11.2H13.7288C13.3936 11.2 13.1944 11.4448 13.1944 11.6728C13.1944 12.1704 13.9504 12.2848 14.0288 13.6848V16.7224C14.0288 17.388 13.908 17.5104 13.64 17.5104C12.9264 17.5104 11.1944 14.9416 10.168 12.0016C9.96082 11.4312 9.75842 11.2008 9.22002 11.2008H7.12002C6.52082 11.2008 6.40002 11.4768 6.40002 11.7856C6.40002 12.3312 7.11362 15.044 9.71842 18.628C11.4544 21.0744 13.8992 22.4 16.1232 22.4C17.46 22.4 17.6232 22.1056 17.6232 21.5992C17.6232 19.2616 17.5024 19.0408 18.172 19.0408C18.4824 19.0408 19.0168 19.1944 20.2648 20.3744C21.6912 21.7736 21.9256 22.4 22.724 22.4H24.8232C25.4216 22.4 25.7248 22.1056 25.5504 21.5248C25.1512 20.3032 22.4536 17.7904 22.332 17.6224Z" fill="white"/></g><defs><clipPath id="clip0"><rect width="19.2" height="19.2" fill="white" transform="translate(6.40002 7.20001)"/></clipPath></defs></svg>