<svg width="694" height="419" fill="none" xmlns="http://www.w3.org/2000/svg"><path d="M.019 209.227a9.668 9.668 0 0 0 2.825 6.831 9.643 9.643 0 0 0 6.822 2.829H224.52a9.642 9.642 0 0 0 6.821-2.829 9.67 9.67 0 0 0 0-13.661 9.639 9.639 0 0 0-6.821-2.83H9.647a9.64 9.64 0 0 0-6.821 2.83A9.664 9.664 0 0 0 0 209.227h.019ZM435.507 245.942a9.67 9.67 0 0 0 2.826 6.831 9.643 9.643 0 0 0 6.822 2.829H659.99a9.645 9.645 0 0 0 6.822-2.829 9.668 9.668 0 0 0 0-13.661 9.641 9.641 0 0 0-6.822-2.83H445.155a9.64 9.64 0 0 0-6.822 2.83 9.665 9.665 0 0 0-2.826 6.83ZM130.667 182.076a9.67 9.67 0 0 0 2.826 6.831 9.643 9.643 0 0 0 6.822 2.829h214.854a9.642 9.642 0 0 0 6.821-2.829 9.67 9.67 0 0 0 0-13.662 9.642 9.642 0 0 0-6.821-2.829H140.303a9.642 9.642 0 0 0-6.821 2.829 9.67 9.67 0 0 0-2.826 6.831h.011ZM53.835 182.076a9.668 9.668 0 0 0 2.825 6.831 9.643 9.643 0 0 0 6.822 2.829h26.07a9.643 9.643 0 0 0 6.821-2.829 9.668 9.668 0 0 0 0-13.662 9.643 9.643 0 0 0-6.821-2.829H63.47a9.643 9.643 0 0 0-6.822 2.829 9.668 9.668 0 0 0-2.825 6.831h.01ZM618.703 271.79a9.664 9.664 0 0 1-2.825 6.83 9.64 9.64 0 0 1-6.822 2.83H394.221a9.641 9.641 0 0 1-6.822-2.83 9.668 9.668 0 0 1 0-13.661 9.645 9.645 0 0 1 6.822-2.829h214.835a9.643 9.643 0 0 1 6.822 2.829 9.668 9.668 0 0 1 2.825 6.831ZM694 273.325a9.665 9.665 0 0 1-2.826 6.831 9.642 9.642 0 0 1-6.821 2.829h-26.07a9.645 9.645 0 0 1-6.822-2.829 9.668 9.668 0 0 1 0-13.662 9.645 9.645 0 0 1 6.822-2.829h26.07a9.642 9.642 0 0 1 6.821 2.829 9.665 9.665 0 0 1 2.826 6.831Z" fill="#C8C3E2"/><path d="M95.793 215.844c0 3.216-.954 6.36-2.739 9.034a16.222 16.222 0 0 1-24.987 2.46 16.282 16.282 0 0 1-3.519-17.722 16.254 16.254 0 0 1 5.982-7.297 16.224 16.224 0 0 1 20.507 2.024 16.278 16.278 0 0 1 4.755 11.501ZM109.503 171.03a21.9 21.9 0 0 1-3.684 12.153 21.855 21.855 0 0 1-9.806 8.056 21.832 21.832 0 0 1-23.808-4.747 21.88 21.88 0 0 1-5.977-11.201 21.905 21.905 0 0 1 1.245-12.64 21.869 21.869 0 0 1 8.048-9.816 21.834 21.834 0 0 1 20.5-2.019 21.85 21.85 0 0 1 11.821 11.842 21.88 21.88 0 0 1 1.661 8.372ZM564.487 102.092a9.665 9.665 0 0 1-2.826 6.83 9.64 9.64 0 0 1-6.822 2.83H528.77a9.64 9.64 0 0 1-6.822-2.83 9.667 9.667 0 0 1 0-13.661 9.64 9.64 0 0 1 6.822-2.83h26.069a9.64 9.64 0 0 1 6.822 2.83 9.668 9.668 0 0 1 2.826 6.831Z" fill="#C8C3E2"/><path d="M508.819 91.042c0 4.327 1.281 8.556 3.682 12.154a21.848 21.848 0 0 0 9.805 8.057 21.815 21.815 0 0 0 12.624 1.244 21.837 21.837 0 0 0 11.186-5.988 21.885 21.885 0 0 0 5.978-11.201 21.908 21.908 0 0 0-1.245-12.64 21.87 21.87 0 0 0-8.048-9.817 21.828 21.828 0 0 0-27.586 2.723 21.888 21.888 0 0 0-6.396 15.468ZM650.194 239.328a16.266 16.266 0 0 1-10.012 15.038 16.223 16.223 0 0 1-17.706-3.513 16.27 16.27 0 0 1-4.45-8.327 16.266 16.266 0 0 1 6.903-16.699 16.223 16.223 0 0 1 20.502 2.014 16.275 16.275 0 0 1 4.763 11.487Z" fill="#C8C3E2"/><path d="M625.868 228.533a27.049 27.049 0 0 1-4.546 15.01 26.997 26.997 0 0 1-12.109 9.953 26.946 26.946 0 0 1-15.59 1.54 26.973 26.973 0 0 1-13.818-7.391 27.04 27.04 0 0 1-5.859-29.443 27.012 27.012 0 0 1 9.933-12.13 26.96 26.96 0 0 1 34.08 3.348 27.014 27.014 0 0 1 5.854 8.768 27.06 27.06 0 0 1 2.055 10.345Z" fill="#C8C3E2"/><path d="M569.489 241.143c16.256-16.276 16.256-42.666 0-58.943-16.255-16.276-42.609-16.276-58.865 0-16.255 16.277-16.255 42.667 0 58.943 16.256 16.277 42.61 16.277 58.865 0ZM552.765 294.58a27.046 27.046 0 0 1-4.547 15.012 26.995 26.995 0 0 1-12.11 9.953 26.965 26.965 0 0 1-29.408-5.855 27.034 27.034 0 0 1-7.388-13.833 27.058 27.058 0 0 1 1.533-15.612 27.01 27.01 0 0 1 9.936-12.129 26.959 26.959 0 0 1 34.076 3.356 27.046 27.046 0 0 1 7.908 19.108ZM139.662 232.103a27.045 27.045 0 0 1-4.547 15.014 26.997 26.997 0 0 1-12.11 9.954 26.957 26.957 0 0 1-29.411-5.857 27.03 27.03 0 0 1-7.386-13.836 27.057 27.057 0 0 1 1.536-15.614 27.02 27.02 0 0 1 9.941-12.127 26.96 26.96 0 0 1 34.074 3.361 27.037 27.037 0 0 1 7.903 19.105Z" fill="#C8C3E2"/><path d="M201.8 248.321a37.489 37.489 0 0 1-6.303 20.808 37.417 37.417 0 0 1-16.787 13.795 37.352 37.352 0 0 1-21.612 2.131 37.387 37.387 0 0 1-19.152-10.25 37.47 37.47 0 0 1-10.237-19.177 37.498 37.498 0 0 1 2.129-21.641 37.45 37.45 0 0 1 13.776-16.809 37.373 37.373 0 0 1 47.232 4.657 37.475 37.475 0 0 1 10.954 26.486ZM282.366 148.009a37.491 37.491 0 0 1-6.303 20.812 37.415 37.415 0 0 1-16.788 13.798 37.363 37.363 0 0 1-21.615 2.133 37.4 37.4 0 0 1-19.155-10.252 37.473 37.473 0 0 1-10.238-19.18 37.504 37.504 0 0 1 2.13-21.643 37.445 37.445 0 0 1 13.779-16.811 37.372 37.372 0 0 1 47.234 4.659 37.48 37.48 0 0 1 10.956 26.484Z" fill="#C8C3E2"/><path d="M358.746 123.273a58.1 58.1 0 0 1-9.771 32.252 57.99 57.99 0 0 1-26.019 21.382 57.91 57.91 0 0 1-33.497 3.303 57.95 57.95 0 0 1-29.684-15.888 58.072 58.072 0 0 1-15.867-29.723 58.127 58.127 0 0 1 3.299-33.542 58.037 58.037 0 0 1 21.353-26.053 57.921 57.921 0 0 1 32.21-9.783 57.938 57.938 0 0 1 40.995 17.003 58.09 58.09 0 0 1 16.981 41.049ZM228.846 149.15a37.493 37.493 0 0 1-6.303 20.815 37.411 37.411 0 0 1-16.79 13.799 37.364 37.364 0 0 1-21.618 2.131 37.387 37.387 0 0 1-19.155-10.256 37.496 37.496 0 0 1-8.098-40.83 37.436 37.436 0 0 1 13.787-16.807 37.374 37.374 0 0 1 47.226 4.673 37.476 37.476 0 0 1 10.951 26.475Z" fill="#C8C3E2"/><path d="M173.401 169.109c0 3.461-1.025 6.844-2.946 9.722a17.46 17.46 0 0 1-26.888 2.652 17.51 17.51 0 0 1-3.788-19.071 17.48 17.48 0 0 1 16.145-10.803c4.635 0 9.081 1.844 12.358 5.126a17.51 17.51 0 0 1 5.119 12.374ZM473.513 139.397a11.664 11.664 0 0 1-7.186 10.775 11.636 11.636 0 0 1-4.457.887H202.16a11.637 11.637 0 0 1-8.235-3.415 11.67 11.67 0 0 1 0-16.494 11.638 11.638 0 0 1 8.235-3.416h259.71a11.64 11.64 0 0 1 8.233 3.418 11.666 11.666 0 0 1 3.41 8.245Z" fill="#C8C3E2"/><path d="M354.838 99.603a45.312 45.312 0 0 0 7.621 25.153 45.218 45.218 0 0 0 20.292 16.675 45.157 45.157 0 0 0 26.124 2.577 45.194 45.194 0 0 0 23.151-12.391 45.293 45.293 0 0 0 12.375-23.182 45.33 45.33 0 0 0-2.573-26.159 45.265 45.265 0 0 0-16.653-20.319 45.175 45.175 0 0 0-25.121-7.63 45.184 45.184 0 0 0-31.972 13.261 45.304 45.304 0 0 0-13.244 32.015Z" fill="#C8C3E2"/><path d="M421.856 123.723a21.18 21.18 0 0 0 3.561 11.753 21.131 21.131 0 0 0 9.482 7.791 21.088 21.088 0 0 0 12.207 1.204 21.12 21.12 0 0 0 10.817-5.789 21.183 21.183 0 0 0 4.58-23.055 21.145 21.145 0 0 0-7.781-9.494 21.109 21.109 0 0 0-19.823-1.955 21.134 21.134 0 0 0-11.434 11.449 21.175 21.175 0 0 0-1.609 8.096ZM142.868 207.689l-22.72 8.156 30.233 16.258-7.513-24.414Z" fill="#C8C3E2"/><path d="M350.471 366.049a155.755 155.755 0 0 1-104.499-40.454 156.141 156.141 0 0 1-50.4-100.193 156.215 156.215 0 0 1 29.74-108.16 155.838 155.838 0 0 1 94.514-60.24 155.684 155.684 0 0 1 110.451 18.805 156.03 156.03 0 0 1 69.318 88.135 156.253 156.253 0 0 1-7.633 111.924 155.95 155.95 0 0 1-80.639 77.881 155.194 155.194 0 0 1-60.852 12.302Zm0-312.751c-86.012 0-155.991 70.071-155.991 156.201 0 86.129 69.979 156.197 155.991 156.197 86.012 0 156.006-70.072 156.006-156.197 0-86.126-69.99-156.205-156.006-156.205v.004ZM350.512 384.276h-2.103v-.71H352.642v.71c-.697-.004-1.41 0-2.13 0Zm-6.352-.112c-1.41-.052-2.838-.119-4.245-.204l.041-.706c1.403.085 2.824.152 4.226.204l-.022.706Zm12.742 0-.026-.709a161.14 161.14 0 0 0 4.23-.205l.04.71c-1.406.082-2.834.149-4.244.201v.003Zm-21.228-.501a179.6 179.6 0 0 1-4.23-.409l.075-.706c1.395.152 2.812.29 4.215.409l-.06.706Zm29.714 0-.06-.706c1.399-.119 2.816-.257 4.212-.409l.077.706c-1.402.137-2.827.275-4.229.394v.015Zm-38.162-.911c-1.399-.185-2.813-.371-4.208-.609l.111-.702c1.388.223 2.798.427 4.189.609l-.092.702Zm46.61 0-.092-.698c1.391-.19 2.801-.394 4.185-.617l.111.702c-1.391.19-2.805.398-4.204.584v.029Zm-55.007-1.311c-1.388-.256-2.79-.528-4.171-.817l.145-.695c1.373.29 2.768.561 4.152.817l-.126.695Zm63.4-.022-.126-.695c1.384-.257 2.779-.528 4.152-.818l.145.695c-1.377.257-2.779.535-4.171.788v.03Zm-71.719-1.717a152.647 152.647 0 0 1-4.13-1.022l.182-.683c1.358.371 2.738.698 4.107 1.018l-.159.687Zm80.038-.026-.159-.687c1.369-.324 2.749-.665 4.107-1.022l.178.687c-1.365.327-2.749.669-4.126.992v.03Zm-88.264-2.118a121.959 121.959 0 0 1-4.082-1.222l.212-.676c1.347.423 2.709.832 4.055 1.218l-.185.68Zm96.472-.029-.197-.68c1.351-.372 2.716-.803 4.056-1.223l.211.677c-1.325.393-2.694.806-4.052 1.196l-.018.03Zm-104.635-2.519a168.102 168.102 0 0 1-4.022-1.427l.245-.665c1.321.487 2.667.966 4.003 1.423l-.226.669Zm112.723-.034-.226-.669c1.328-.453 2.668-.932 3.989-1.419l.245.665c-1.288.461-2.635.94-3.97 1.393l-.038.03Zm-120.727-2.92a158.272 158.272 0 0 1-3.944-1.62l.278-.654c1.295.554 2.616 1.115 3.926 1.616l-.26.658Zm128.705-.026-.263-.658a171.623 171.623 0 0 0 3.903-1.605l.274.65a142.752 142.752 0 0 1-3.877 1.583l-.037.03Zm-136.545-3.314a150.162 150.162 0 0 1-3.855-1.813l.308-.636c1.262.613 2.553 1.219 3.84 1.806l-.293.643Zm144.337 0-.293-.643c1.28-.583 2.564-1.185 3.822-1.794l.308.635c-1.232.576-2.516 1.181-3.8 1.765l-.037.037Zm7.629-3.697-.327-.632a169.139 169.139 0 0 0 3.733-1.98l.337.621c-1.198.639-2.46 1.307-3.706 1.954l-.037.037Zm-159.635 0a179.17 179.17 0 0 1-3.763-1.999l.338-.62c1.239.676 2.501 1.348 3.748 1.991l-.323.628Zm167.111-4.094-.371-.613a174.625 174.625 0 0 0 3.633-2.163l.371.606a264.551 264.551 0 0 1-3.633 2.17Zm-174.547-.034a158.888 158.888 0 0 1-3.659-2.177l.372-.606c1.198.744 2.422 1.464 3.643 2.17l-.356.613Zm181.786-4.425-.371-.594a188.466 188.466 0 0 0 3.521-2.337l.401.583a98.435 98.435 0 0 1-3.551 2.348Zm-189.047-.052a175.82 175.82 0 0 1-3.548-2.355l.397-.584a189.58 189.58 0 0 0 3.533 2.345l-.382.594Zm196.067-4.726-.411-.576a164.162 164.162 0 0 0 3.406-2.507l.426.564c-1.131.87-2.281 1.724-3.421 2.534v-.015Zm-203.102-.07a167.104 167.104 0 0 1-3.425-2.523l.423-.565c1.113.844 2.267 1.691 3.413 2.516l-.411.572Zm209.881-5.046-.437-.557c1.113-.866 2.2-1.765 3.283-2.668l.453.543a129.731 129.731 0 0 1-3.299 2.697v-.015Zm-216.672-.081a149.473 149.473 0 0 1-3.302-2.687l.457-.546c1.076.899 2.181 1.798 3.283 2.679l-.438.554Zm223.207-5.343-.468-.535a119.757 119.757 0 0 0 3.154-2.824l.479.52a214.525 214.525 0 0 1-3.165 2.839Zm-229.737-.097a162.71 162.71 0 0 1-3.161-2.842l.478-.52c1.032.951 2.093 1.906 3.151 2.831l-.468.531Zm235.985-5.654-.49-.509a221.73 221.73 0 0 0 3.013-2.973l.501.498a134.546 134.546 0 0 1-3.017 2.984h-.007Zm-242.233-.108a275.213 275.213 0 0 1-3.024-2.973l.504-.497a142.94 142.94 0 0 0 3.009 2.972l-.489.498Zm248.229-5.945-.516-.483c.965-1.025 1.93-2.077 2.868-3.121l.527.472a325.916 325.916 0 0 1-2.879 3.132Zm-254.203-.108a158.825 158.825 0 0 1-2.872-3.132l.527-.471a169.714 169.714 0 0 0 2.861 3.12l-.516.483Zm259.873-6.208-.538-.461a196.28 196.28 0 0 0 2.712-3.254l.545.446a823.044 823.044 0 0 1-2.719 3.269Zm-265.554-.108a160.247 160.247 0 0 1-2.716-3.265l.549-.446c.88 1.088 1.792 2.181 2.705 3.254l-.538.457Zm270.919-6.494-.557-.435a181.608 181.608 0 0 0 2.553-3.384l.568.416a251.54 251.54 0 0 1-2.564 3.384v.019Zm-276.273-.104a152.173 152.173 0 0 1-2.557-3.396l.572-.416a186.59 186.59 0 0 0 2.545 3.377l-.56.435Zm281.319-6.758-.582-.405c.809-1.16 1.614-2.341 2.385-3.508l.59.372a176.181 176.181 0 0 1-2.393 3.522v.019Zm-286.347-.093a166.427 166.427 0 0 1-2.389-3.511l.59-.372a191.45 191.45 0 0 0 2.378 3.496l-.579.387Zm291.045-7.026-.601-.372c.742-1.196 1.484-2.414 2.226-3.618l.608.371a234.433 234.433 0 0 1-2.233 3.619Zm-295.724-.074c-.742-1.193-1.484-2.415-2.226-3.623l.605-.371a170.528 170.528 0 0 0 2.204 3.611l-.583.383Zm300.098-7.249-.616-.349a199.343 199.343 0 0 0 2.034-3.716l.627.335c-.676 1.241-1.366 2.5-2.056 3.73h.011Zm-304.435-.048a202.751 202.751 0 0 1-2.033-3.716l.623-.33a183.748 183.748 0 0 0 2.026 3.715l-.616.331Zm308.431-7.483-.634-.319a164.261 164.261 0 0 0 1.855-3.82l.642.301a278.736 278.736 0 0 1-1.874 3.838h.011Zm-312.42 0a244.305 244.305 0 0 1-1.855-3.819l.642-.301a122.048 122.048 0 0 0 1.855 3.801l-.642.319Zm-3.603-7.68c-.567-1.293-1.113-2.6-1.662-3.904l.657-.268c.53 1.289 1.087 2.601 1.651 3.886l-.646.286Zm319.637-.026-.649-.286c.571-1.296 1.113-2.6 1.662-3.912l.653.271a210.105 210.105 0 0 1-1.666 3.913v.014Zm-322.869-7.846a292.285 292.285 0 0 1-1.484-3.994l.664-.238c.472 1.326.965 2.664 1.466 3.979l-.646.253Zm326.109-.064-.661-.252a263.04 263.04 0 0 0 1.484-3.991l.668.238a205.213 205.213 0 0 1-1.503 4.005h.012Zm-328.954-7.958a165.527 165.527 0 0 1-1.277-4.061l.679-.2c.401 1.337.831 2.701 1.269 4.042l-.671.219Zm331.807-.089-.672-.223c.438-1.341.869-2.708 1.273-4.057l.675.204a162.585 162.585 0 0 1-1.276 4.076Zm-334.256-8.059c-.371-1.374-.742-2.76-1.076-4.12l.686-.167c.338 1.352.698 2.734 1.072 4.087l-.682.2Zm336.705-.111-.679-.186c.371-1.356.742-2.738 1.065-4.087l.686.171a176.318 176.318 0 0 1-1.072 4.102Zm-338.754-8.152a159.458 159.458 0 0 1-.872-4.165l.694-.137c.271 1.382.564 2.775.869 4.15l-.691.152Zm340.798-.107-.69-.156c.304-1.379.598-2.772.865-4.147l.694.138a167.548 167.548 0 0 1-.869 4.165Zm-342.441-8.241a170.9 170.9 0 0 1-.664-4.202l.697-.104c.204 1.393.427 2.801.664 4.187l-.697.119Zm344.078-.111-.698-.119a185.4 185.4 0 0 0 .664-4.188l.698.101a189.036 189.036 0 0 1-.664 4.206Zm-345.31-8.312a162.87 162.87 0 0 1-.46-4.228l.701-.07c.137 1.397.289 2.812.464 4.213l-.705.085Zm346.556-.111-.705-.086c.171-1.397.323-2.812.46-4.213l.702.067a348.216 348.216 0 0 1-.475 4.232h.018Zm-347.358-8.36a174.304 174.304 0 0 1-.259-4.246l.708-.034c.067 1.408.152 2.831.256 4.232l-.705.048Zm348.171-.111-.705-.052c.1-1.393.189-2.816.256-4.228l.705.033c-.085 1.416-.178 2.85-.275 4.247h.019Zm-348.601-8.389a164.442 164.442 0 0 1-.056-4.255h.694c0 1.397.019 2.82.052 4.24l-.69.015Zm348.991-.112h-.705c.033-1.408.048-2.835.048-4.239v-.238h.716v.238c0 1.393-.026 2.827-.059 4.239Zm-348.29-8.382h-.708c.033-1.404.081-2.835.148-4.254l.709.034c-.067 1.4-.119 2.823-.149 4.22Zm347.577-.349a177.823 177.823 0 0 0-.156-4.236l.705-.037c.071 1.416.123 2.85.16 4.254l-.709.019Zm-347.18-8.118-.705-.052c.1-1.401.219-2.827.371-4.239l.702.067a129.438 129.438 0 0 0-.368 4.224Zm346.765-.349a130.762 130.762 0 0 0-.371-4.225l.701-.067c.137 1.412.263 2.839.371 4.24l-.701.052Zm-345.956-8.089-.701-.085c.167-1.404.371-2.824.56-4.217l.698.1c-.201 1.39-.386 2.802-.557 4.202Zm345.132-.345a215.779 215.779 0 0 0-.568-4.202l.701-.104c.204 1.393.397 2.812.568 4.217l-.701.089Zm-343.915-8.044-.697-.119c.237-1.378.493-2.786.764-4.183l.694.133a150.145 150.145 0 0 0-.761 4.169Zm342.679-.345c-.237-1.379-.497-2.78-.768-4.165l.694-.138c.275 1.39.534 2.798.772 4.184l-.698.119Zm-341.054-7.974-.69-.152c.301-1.378.627-2.772.969-4.143l.682.168c-.334 1.367-.66 2.756-.961 4.127Zm339.414-.341a162.04 162.04 0 0 0-.972-4.124l.687-.171c.341 1.371.667 2.764.975 4.142l-.69.153Zm-337.384-7.888-.683-.186a159.45 159.45 0 0 1 1.169-4.087l.679.201a145.565 145.565 0 0 0-1.165 4.072Zm335.34-.338a175.002 175.002 0 0 0-1.176-4.087l.679-.204c.404 1.348.801 2.727 1.176 4.086l-.679.205Zm-332.913-7.78-.672-.219c.438-1.345.902-2.709 1.377-4.046l.664.237a175.16 175.16 0 0 0-1.369 4.028Zm330.464-.335a178.543 178.543 0 0 0-1.369-4.008l.664-.238c.475 1.334.939 2.686 1.376 4.027l-.671.219Zm-327.633-7.683-.661-.252a161.94 161.94 0 0 1 1.573-3.969l.654.268a225.145 225.145 0 0 0-1.563 3.953h-.003Zm324.787-.301a165.245 165.245 0 0 0-1.562-3.938l.653-.268a167.643 167.643 0 0 1 1.573 3.954l-.664.252Zm-321.559-7.564-.646-.283a177.57 177.57 0 0 1 1.763-3.886l.638.301c-.598 1.278-1.169 2.578-1.755 3.868Zm318.357-.257a169.624 169.624 0 0 0-1.752-3.845l.642-.301a188.26 188.26 0 0 1 1.759 3.86l-.649.286Zm-314.736-7.43-.634-.32a187.74 187.74 0 0 1 1.948-3.79l.627.331a112.368 112.368 0 0 0-1.956 3.775l.015.004Zm311.14-.212a193.142 193.142 0 0 0-1.936-3.756l.623-.335a168.369 168.369 0 0 1 1.944 3.771l-.631.32Zm-307.181-7.297-.619-.346a176.33 176.33 0 0 1 2.133-3.693l.609.372c-.72 1.2-1.433 2.437-2.123 3.667Zm303.2-.171a147.407 147.407 0 0 0-2.119-3.66l.609-.371a171.7 171.7 0 0 1 2.126 3.674l-.616.357Zm-298.866-7.126-.601-.372c.742-1.2 1.529-2.403 2.308-3.581l.59.39a166.682 166.682 0 0 0-2.297 3.563Zm294.543-.141a171.224 171.224 0 0 0-2.296-3.556l.59-.39a162.243 162.243 0 0 1 2.304 3.567l-.598.379Zm-289.864-6.933-.579-.405a166.674 166.674 0 0 1 2.479-3.463l.567.416a195.53 195.53 0 0 0-2.467 3.452Zm285.189-.119a166.248 166.248 0 0 0-2.467-3.437l.571-.419c.839 1.14 1.674 2.299 2.475 3.451l-.579.405Zm-280.169-6.717-.56-.435a255.831 255.831 0 0 1 2.642-3.344l.549.446a226.28 226.28 0 0 0-2.631 3.333Zm275.156-.101a143.053 143.053 0 0 0-2.63-3.317l.549-.446c.89 1.114 1.781 2.229 2.638 3.344l-.557.419ZM218.198 96.54l-.538-.46a161.946 161.946 0 0 1 2.801-3.203l.527.472a171.124 171.124 0 0 0-2.79 3.191Zm264.477-.085a202.652 202.652 0 0 0-2.787-3.188l.527-.472a173.207 173.207 0 0 1 2.798 3.199l-.538.46Zm-258.823-6.227-.515-.487c.964-1.03 1.959-2.058 2.949-3.061l.501.497c-.983 1-1.974 2.025-2.935 3.05Zm253.172-.078a176.157 176.157 0 0 0-2.939-3.05l.501-.498a294.025 294.025 0 0 1 2.969 3.061l-.531.487ZM229.8 84.205l-.49-.509a183.662 183.662 0 0 1 3.091-2.916l.479.52a128.382 128.382 0 0 0-3.08 2.898v.007Zm241.272-.074a208.25 208.25 0 0 0-3.083-2.906l.475-.52c1.046.959 2.085 1.94 3.098 2.917l-.49.509ZM236.03 78.472l-.468-.535a196.834 196.834 0 0 1 3.232-2.76l.453.542c-1.08.896-2.148 1.82-3.217 2.746v.007Zm228.805-.074a151.801 151.801 0 0 0-3.224-2.753l.452-.542c1.088.906 2.179 1.835 3.236 2.764l-.464.531Zm-222.308-5.35-.438-.554c1.113-.876 2.226-1.753 3.34-2.6l.426.564c-1.102.84-2.23 1.71-3.328 2.582v.008Zm215.796-.074a409.117 409.117 0 0 0-3.339-2.601l.423-.565c1.113.847 2.26 1.724 3.369 2.6l-.453.566ZM249.28 67.947l-.416-.573a181.864 181.864 0 0 1 3.481-2.437l.397.587c-1.173.773-2.33 1.602-3.462 2.415v.008Zm202.275-.078a162.318 162.318 0 0 0-3.473-2.426l.397-.587c1.169.795 2.345 1.616 3.488 2.437l-.412.576Zm-195.288-4.693-.371-.594a156.286 156.286 0 0 1 3.591-2.26l.372.603c-1.214.732-2.416 1.49-3.592 2.251Zm188.279-.085a172.71 172.71 0 0 0-3.588-2.255l.371-.606c1.203.743 2.416 1.486 3.607 2.266l-.39.595Zm-181.07-4.332-.371-.613a139.61 139.61 0 0 1 3.711-2.081l.337.62c-1.235.695-2.471 1.371-3.684 2.074h.007Zm173.842-.093a142.852 142.852 0 0 0-3.71-2.08l.338-.621a159.26 159.26 0 0 1 3.71 2.088l-.338.613Zm-166.454-3.964-.323-.628a156.754 156.754 0 0 1 3.788-1.903l.312.64c-1.25.612-2.519 1.251-3.777 1.89Zm158.989-.105a172.436 172.436 0 0 0-3.796-1.894l.308-.64a173.51 173.51 0 0 1 3.811 1.907l-.323.627Zm-151.387-3.589-.293-.642c1.273-.58 2.598-1.156 3.874-1.713l.278.654a200.08 200.08 0 0 0-3.851 1.701h-.008Zm143.755-.111a215.64 215.64 0 0 0-3.885-1.705l.274-.654c1.31.557 2.624 1.133 3.904 1.716l-.293.643Zm-135.996-3.199-.26-.661a189.51 189.51 0 0 1 3.967-1.524l.245.666c-1.31.486-2.638.999-3.945 1.519h-.007Zm128.181-.119c-1.306-.52-2.641-1.029-3.966-1.516l.245-.665c1.328.49 2.671 1.003 3.981 1.52l-.26.661Zm-120.233-2.831-.23-.669c1.336-.457 2.694-.903 4.04-1.33l.212.676c-1.34.431-2.694.877-4.022 1.323Zm112.271-.111a171.29 171.29 0 0 0-4.041-1.32l.212-.676c1.354.424 2.716.87 4.055 1.323l-.226.673Zm-104.197-2.434-.193-.68c1.35-.371 2.731-.769 4.081-1.115l.178.688c-1.346.35-2.719.728-4.066 1.115v-.008Zm96.101-.1c-1.351-.372-2.724-.743-4.082-1.115l.178-.687c1.362.371 2.742.743 4.082 1.114l-.178.688Zm-87.912-2.047-.16-.688c1.369-.323 2.764-.635 4.148-.925l.145.691c-1.38.297-2.768.61-4.133.929v-.008Zm79.719-.082c-1.369-.32-2.761-.628-4.134-.914l.145-.691c1.38.286 2.776.594 4.148.914l-.159.69Zm-71.426-1.653-.13-.695c1.387-.257 2.794-.498 4.189-.721l.111.698a147.14 147.14 0 0 0-4.17.718Zm63.144-.064c-1.376-.252-2.783-.49-4.17-.71l.107-.701c1.395.219 2.805.46 4.193.713l-.13.698Zm-54.785-1.27-.093-.699a131.01 131.01 0 0 1 4.219-.516l.074.702a169.46 169.46 0 0 0-4.207.513h.007Zm46.425-.049c-1.391-.182-2.805-.371-4.204-.505l.075-.702a174.7 174.7 0 0 1 4.219.505l-.09.702Zm-38.009-.877-.06-.705c1.403-.12 2.828-.223 4.238-.309l.04.706c-1.41.078-2.812.19-4.226.309h.008Zm29.59-.03c-1.398-.118-2.82-.218-4.222-.3l.041-.706c1.41.082 2.835.182 4.241.3l-.06.707Zm-21.149-.486-.026-.706c1.402-.052 2.831-.089 4.245-.108v.71c-1.399.019-2.82.052-4.204.104h-.015Zm12.693 0a160.334 160.334 0 0 0-4.233-.096v-.71a124 124 0 0 1 4.248.097l-.015.71ZM348.412 419c-1.41 0-2.838-.041-4.241-.082l.022-.709c1.399.04 2.82.07 4.227.085l-.008.706Zm4.241 0v-.71c1.403 0 2.824-.041 4.223-.081l.022.706c-1.41.04-2.839.07-4.241.085h-.004Zm-12.719-.249a229.485 229.485 0 0 1-4.234-.253l.048-.705c1.399.096 2.82.182 4.223.248l-.037.71Zm21.19 0-.033-.706c1.395-.07 2.816-.156 4.215-.256l.052.706a273.25 273.25 0 0 1-4.23.249l-.004.007Zm-29.65-.583c-1.403-.127-2.82-.271-4.219-.424l.078-.706c1.391.156 2.809.298 4.204.424l-.063.706Zm38.11 0-.063-.706c1.391-.126 2.809-.271 4.204-.424l.078.702c-1.399.138-2.816.283-4.215.402l-.004.026Zm-46.54-.922c-1.395-.185-2.809-.371-4.197-.594l.104-.702c1.384.211 2.79.412 4.186.594l-.093.702Zm54.966 0-.089-.702c1.388-.186 2.794-.371 4.186-.594l.104.698c-1.388.178-2.802.379-4.197.565l-.004.033Zm-63.348-1.259c-1.392-.238-2.794-.498-4.174-.743l.133-.699c1.377.268 2.776.524 4.16.743l-.119.699Zm71.734 0-.119-.699c1.381-.241 2.78-.498 4.156-.765l.134.698c-1.377.216-2.779.472-4.167.714l-.004.052Zm-80.06-1.594a204.952 204.952 0 0 1-4.138-.933l.16-.691c1.373.327 2.761.639 4.126.933l-.148.691Zm88.386-.026-.148-.691c1.369-.297 2.753-.609 4.122-.933l.164.688c-1.37.275-2.761.59-4.134.884l-.004.052Zm-96.642-1.925c-1.358-.371-2.735-.72-4.082-1.114l.193-.68c1.355.371 2.727.743 4.082 1.114l-.193.68Zm104.894-.029-.178-.688c1.355-.349 2.727-.72 4.082-1.114l.189.68c-1.351.345-2.731.717-4.089 1.07l-.004.052Zm-113.061-2.259c-1.354-.409-2.723-.84-4.063-1.275l.219-.672c1.336.435 2.698.862 4.048 1.267l-.204.68Zm121.228-.034-.204-.68c1.34-.405 2.694-.832 4.03-1.263l.219.673c-1.336.375-2.698.81-4.041 1.218l-.004.052Zm-129.328-2.6a210.537 210.537 0 0 1-4.003-1.438l.244-.665c1.321.49 2.665.973 3.993 1.434l-.234.669Zm137.391-.03-.23-.669a192.08 192.08 0 0 0 3.978-1.43l.244.665c-1.317.442-2.656.94-3.988 1.385l-.004.049Zm-145.372-2.976a232.055 232.055 0 0 1-3.944-1.601l.274-.654c1.295.538 2.598 1.077 3.93 1.593l-.26.662Zm153.323-.022-.259-.658a234.893 234.893 0 0 0 3.899-1.587l.275.654a192.591 192.591 0 0 1-3.907 1.591h-.008Zm-161.174-3.263a172.954 172.954 0 0 1-3.87-1.761l.3-.642a195.93 195.93 0 0 0 3.855 1.757l-.285.646Zm168.97 0-.286-.646a206.394 206.394 0 0 0 3.833-1.743l.301.64c-1.265.594-2.56 1.2-3.84 1.749h-.008Zm7.659-3.577-.312-.636a204.099 204.099 0 0 0 3.766-1.898l.323.628a182.208 182.208 0 0 1-3.77 1.906h-.007Zm-184.332-.023a198.194 198.194 0 0 1-3.796-1.913l.323-.632c1.254.65 2.527 1.293 3.784 1.91l-.311.635Zm191.83-3.864-.337-.624a181.4 181.4 0 0 0 3.688-2.051l.349.617c-1.202.698-2.449 1.39-3.677 2.058h-.023Zm-199.396-.044a209.375 209.375 0 0 1-3.71-2.07l.371-.613c1.224.699 2.467 1.393 3.71 2.062l-.371.621Zm206.788-4.147-.371-.609a212.613 212.613 0 0 0 3.602-2.199l.371.601c-1.198.747-2.415 1.49-3.602 2.207Zm-214.131-.066c-1.206-.721-2.427-1.487-3.625-2.23l.371-.602c1.195.743 2.412 1.487 3.614 2.23l-.36.602Zm221.31-4.422-.371-.591a227.827 227.827 0 0 0 3.51-2.344l.397.583c-1.194.795-2.378 1.598-3.55 2.341l.014.011Zm-228.512-.085a226.084 226.084 0 0 1-3.532-2.363l.4-.584c1.158.792 2.342 1.583 3.518 2.356l-.386.591Zm235.51-4.689-.412-.576c1.14-.81 2.286-1.646 3.414-2.486l.423.569c-1.147.84-2.3 1.683-3.44 2.493h.015Zm-242.523-.104a205.65 205.65 0 0 1-3.432-2.504l.423-.569c1.113.84 2.278 1.68 3.421 2.497l-.412.576Zm249.343-4.953-.434-.561a280.415 280.415 0 0 0 3.31-2.6l.445.549c-1.124.866-2.245 1.75-3.354 2.612h.033Zm-256.136-.122a249.904 249.904 0 0 1-3.34-2.638l.445-.55c1.113.888 2.227 1.772 3.314 2.63l-.419.558Zm262.726-5.202-.453-.542a194.433 194.433 0 0 0 3.202-2.753l.468.531c-1.095.929-2.178 1.858-3.251 2.761l.034.003Zm-269.324-.137a192.718 192.718 0 0 1-3.213-2.768l.43-.528c1.058.929 2.138 1.858 3.206 2.761l-.423.535Zm275.687-5.454-.478-.524a207.563 207.563 0 0 0 3.094-2.88l.486.513c-1.035.962-2.078 1.936-3.12 2.887l.018.004Zm-282.076-.149a225.013 225.013 0 0 1-3.102-2.894l.486-.513c1.024.973 2.063 1.943 3.095 2.887l-.479.52Zm288.199-5.699-.498-.506a149.937 149.937 0 0 0 2.969-3.005l.508.494c-.968.992-1.97 2.021-2.979 3.017Zm-294.366-.156a171.97 171.97 0 0 1-2.968-3.021l.508-.49a210.114 210.114 0 0 0 2.968 3.005l-.508.506Zm300.276-5.945-.519-.483a194.942 194.942 0 0 0 2.853-3.121l.527.472a166.897 166.897 0 0 1-2.857 3.14l-.004-.008Zm-306.176-.16a193.072 193.072 0 0 1-2.857-3.135l.527-.472a229.95 229.95 0 0 0 2.846 3.124l-.516.483Zm311.842-6.167-.538-.461a191.724 191.724 0 0 0 2.724-3.24l.545.454a150.765 150.765 0 0 1-2.731 3.247ZM191.66 345.9a212.117 212.117 0 0 1-2.727-3.243l.545-.453a202.774 202.774 0 0 0 2.72 3.236l-.538.46Zm322.892-6.386-.557-.442c.872-1.115 1.744-2.23 2.597-3.344l.564.427a188.663 188.663 0 0 1-2.604 3.37v-.011Zm-328.287-.138c-.868-1.114-1.74-2.229-2.597-3.344l.564-.431c.853 1.115 1.721 2.252 2.597 3.344l-.564.431Zm333.414-6.606-.571-.416c.828-1.14 1.655-2.3 2.456-3.451l.579.405a174.851 174.851 0 0 1-2.456 3.451l-.008.011Zm-338.534-.148c-.828-1.137-1.651-2.3-2.457-3.456l.579-.405a193.81 193.81 0 0 0 2.449 3.441l-.571.42ZM524.54 325.8l-.59-.394a208.82 208.82 0 0 0 2.316-3.548l.597.372a232.75 232.75 0 0 1-2.315 3.559l-.008.011Zm-348.237-.137a243.394 243.394 0 0 1-2.316-3.548l.598-.372a143.09 143.09 0 0 0 2.304 3.537l-.586.383Zm352.808-7.037-.604-.372c.742-1.2 1.465-2.426 2.174-3.637l.608.372a148.549 148.549 0 0 1-2.178 3.637Zm-357.369-.119c-.742-1.2-1.461-2.426-2.166-3.637l.612-.372a198.75 198.75 0 0 0 2.159 3.626l-.605.383Zm361.651-7.23-.616-.346a236.458 236.458 0 0 0 2.023-3.715l.623.331a146.251 146.251 0 0 1-2.019 3.73h-.011Zm-365.91-.089a211.194 211.194 0 0 1-2.019-3.716l.624-.334c.66 1.245 1.335 2.493 2.011 3.715l-.616.335Zm369.895-7.431-.634-.319a135.103 135.103 0 0 0 1.855-3.805l.638.305a115.2 115.2 0 0 1-1.848 3.823l-.011-.004Zm-373.847-.048a152.59 152.59 0 0 1-1.855-3.797l.634-.305c.605 1.256 1.229 2.53 1.856 3.786l-.635.316Zm377.532-7.62-.646-.294a195.462 195.462 0 0 0 1.714-3.882l.65.282a288.286 288.286 0 0 1-1.718 3.89v.004Zm-381.183 0a220.385 220.385 0 0 1-1.71-3.872l.653-.278c.549 1.285 1.113 2.6 1.699 3.856l-.642.294Zm-3.339-7.777a175.267 175.267 0 0 1-1.555-3.949l.66-.253a211.02 211.02 0 0 0 1.551 3.939l-.656.263Zm387.88-.037-.653-.267a194.23 194.23 0 0 0 1.554-3.95l.661.253a245.334 245.334 0 0 1-1.562 3.949v.015Zm-390.912-7.906a211.017 211.017 0 0 1-1.391-4.013l.668-.223c.449 1.331.916 2.675 1.391 3.994l-.668.242Zm393.951-.067-.664-.238c.471-1.315.938-2.667 1.391-4.012l.671.223a186.084 186.084 0 0 1-1.398 4.027Zm-396.648-7.984c-.42-1.341-.835-2.709-1.228-4.065l.69-.212c.393 1.349.805 2.713 1.224 4.05l-.686.227Zm399.367-.097-.675-.212c.416-1.33.828-2.693 1.225-4.049l.679.197c-.405 1.371-.817 2.73-1.236 4.064h.007Zm-401.761-8.055c-.371-1.36-.723-2.742-1.061-4.109l.687-.171c.337 1.364.694 2.742 1.057 4.087l-.683.193Zm404.114-.096-.683-.186a170.5 170.5 0 0 0 1.054-4.087l.686.171a171.436 171.436 0 0 1-1.046 4.102h-.011Zm-406.139-8.148a180.252 180.252 0 0 1-.895-4.15l.694-.141c.282 1.378.583 2.771.891 4.135l-.69.156Zm408.187-.097-.69-.156c.308-1.363.605-2.753.887-4.139l.694.142a230.19 230.19 0 0 1-.891 4.153Zm-409.872-8.218c-.256-1.386-.497-2.794-.742-4.184l.698-.111c.222 1.382.467 2.786.719 4.169l-.675.126Zm411.586-.1-.694-.127c.253-1.378.494-2.779.72-4.168l.698.111c-.245 1.393-.49 2.798-.742 4.18l.018.004Zm-412.966-8.282c-.201-1.401-.371-2.816-.557-4.209l.701-.09c.171 1.394.371 2.806.553 4.199l-.697.1Zm414.306-.104-.698-.097c.193-1.389.371-2.801.549-4.198l.702.086c-.171 1.4-.357 2.82-.553 4.209Zm-415.33-8.326a146.983 146.983 0 0 1-.371-4.232l.705-.056c.111 1.401.241 2.82.371 4.217l-.705.071Zm416.35-.104-.705-.071c.141-1.397.267-2.816.371-4.213l.701.056c-.1 1.401-.226 2.823-.367 4.228Zm-417.029-8.348c-.086-1.401-.16-2.828-.216-4.24l.705-.029c.06 1.408.13 2.831.216 4.228l-.705.041Zm417.704-.101-.705-.041c.086-1.404.156-2.827.212-4.228l.705.03c-.056 1.39-.126 2.816-.212 4.224v.015Zm-418.049-8.389c-.03-1.412-.041-2.839-.041-4.247h.705c0 1.401 0 2.828.044 4.232l-.708.015Zm418.387-.112h-.705c.026-1.408.041-2.831.041-4.231v-.22h.709v.22c0 1.393-.015 2.823-.045 4.231Zm-417.682-8.367h-.709c.03-1.411.07-2.838.126-4.246l.705.03a194.928 194.928 0 0 0-.122 4.216Zm416.973-.326a218.287 218.287 0 0 0-.13-4.221l.706-.03c.055 1.401.1 2.828.129 4.236l-.705.015Zm-416.643-8.13-.705-.041c.085-1.408.182-2.831.293-4.235l.705.056c-.126 1.408-.208 2.82-.293 4.22Zm416.313-.319a201.38 201.38 0 0 0-.3-4.221l.705-.056c.115 1.405.215 2.832.3 4.236l-.705.041Zm-415.642-8.118-.701-.067c.137-1.408.293-2.827.464-4.221l.701.082a227.104 227.104 0 0 0-.464 4.206Zm414.945-.32a235.163 235.163 0 0 0-.472-4.206l.702-.085c.17 1.401.33 2.82.471 4.221l-.701.07Zm-413.932-8.081-.701-.093c.197-1.393.408-2.805.635-4.198l.697.115a174.246 174.246 0 0 0-.631 4.176Zm412.907-.315a217.04 217.04 0 0 0-.641-4.184l.701-.115c.226 1.386.441 2.801.638 4.198l-.698.101Zm-411.56-8.04-.694-.127c.253-1.386.524-2.79.806-4.168l.69.141a199.622 199.622 0 0 0-.802 4.154Zm410.199-.313a233.83 233.83 0 0 0-.809-4.153l.69-.145c.286 1.386.56 2.786.813 4.168l-.694.13Zm-408.522-7.98-.69-.156c.308-1.375.638-2.764.976-4.132l.686.171c-.319 1.353-.653 2.746-.96 4.117h-.012Zm406.808-.309a211.765 211.765 0 0 0-.976-4.12l.686-.171c.341 1.371.668 2.761.98 4.132l-.69.159Zm-404.771-7.906-.682-.186c.371-1.363.742-2.738 1.139-4.086l.679.196c-.39 1.353-.772 2.716-1.136 4.076Zm402.745-.308c-.371-1.36-.743-2.731-1.143-4.087l.679-.197c.393 1.349.779 2.723 1.146 4.087l-.682.197Zm-400.388-7.802-.676-.212c.427-1.356.865-2.72 1.314-4.054l.671.223a179.27 179.27 0 0 0-1.309 4.024v.019Zm398.017-.305a219.55 219.55 0 0 0-1.306-4.024l.667-.226c.449 1.333.891 2.693 1.314 4.038l-.675.212Zm-395.32-7.769-.664-.238a168.61 168.61 0 0 1 1.484-3.994l.661.253a235.813 235.813 0 0 0-1.481 3.979Zm392.622-.267a150.306 150.306 0 0 0-1.484-3.968l.66-.253a273.178 273.178 0 0 1 1.485 3.979l-.661.242Zm-389.598-7.665-.653-.264a212.34 212.34 0 0 1 1.636-3.931l.65.279a244.538 244.538 0 0 0-1.633 3.916Zm386.574-.238a218.996 218.996 0 0 0-1.629-3.89l.65-.279c.556 1.29 1.113 2.601 1.632 3.902l-.653.267Zm-383.227-7.561-.646-.289c.583-1.29 1.188-2.601 1.796-3.861l.638.305a250.43 250.43 0 0 0-1.788 3.845Zm379.895-.185a193.889 193.889 0 0 0-1.785-3.82l.639-.308c.608 1.27 1.209 2.56 1.788 3.834l-.642.294Zm-376.24-7.465-.635-.319c.635-1.256 1.291-2.53 1.952-3.782l.627.334a216.16 216.16 0 0 0-1.941 3.767h-.003Zm372.593-.141a214.579 214.579 0 0 0-1.941-3.749l.627-.33a205.69 205.69 0 0 1 1.944 3.76l-.63.319Zm-368.627-7.352-.619-.346c.69-1.241 1.398-2.486 2.103-3.715l.613.371a207.13 207.13 0 0 0-2.097 3.69Zm364.679-.105a215.57 215.57 0 0 0-2.089-3.667l.608-.371a189.63 189.63 0 0 1 2.097 3.678l-.616.36Zm-360.416-7.204-.601-.371a185.507 185.507 0 0 1 2.249-3.608l.597.372a162.005 162.005 0 0 0-2.245 3.607Zm356.164-.07c-.743-1.2-1.485-2.404-2.227-3.582l.594-.371c.742 1.177 1.51 2.389 2.226 3.592l-.593.361ZM176.93 93.72l-.59-.393c.779-1.17 1.584-2.352 2.393-3.511l.579.405a135.337 135.337 0 0 0-2.382 3.47v.03Zm347.057-.044c-.779-1.17-1.58-2.344-2.378-3.489l.579-.408c.801 1.151 1.606 2.33 2.389 3.503l-.59.394Zm-342.219-6.944-.571-.416a195.377 195.377 0 0 1 2.53-3.41l.564.426c-.849 1.134-1.699 2.286-2.523 3.4Zm337.392-.03a193.56 193.56 0 0 0-2.519-3.388l.564-.431a217.408 217.408 0 0 1 2.526 3.403l-.571.416Zm-332.275-6.706-.557-.438c.868-1.115 1.766-2.23 2.668-3.307l.546.453a191.782 191.782 0 0 0-2.657 3.292Zm327.169 0a239.247 239.247 0 0 0-2.653-3.288l.542-.45c.898 1.09 1.792 2.2 2.664 3.3l-.553.438ZM192.265 73.48l-.538-.46c.92-1.074 1.855-2.148 2.798-3.196l.527.472a152.4 152.4 0 0 0-2.787 3.17v.014Zm316.413 0c-.916-1.07-1.855-2.14-2.783-3.18l.527-.472a215.428 215.428 0 0 1 2.794 3.192l-.538.46Zm-5.632-6.316a209.804 209.804 0 0 0-2.913-3.065l.508-.494c.98 1.01 1.963 2.047 2.92 3.076l-.515.483Zm-305.141 0-.508-.494a206.43 206.43 0 0 1 2.923-3.08l.505.494a200.896 200.896 0 0 0-2.92 3.073v.007Zm299.256-6.067a207.127 207.127 0 0 0-3.035-2.95l.489-.513a161.5 161.5 0 0 1 3.043 2.973l-.497.49Zm-293.371 0-.498-.505a205.981 205.981 0 0 1 3.043-2.954l.486.513a132.308 132.308 0 0 0-3.031 2.946Zm287.245-5.83a214.716 214.716 0 0 0-3.15-2.823l.467-.531c1.058.932 2.122 1.883 3.161 2.83l-.478.525Zm-281.123 0-.475-.523a203.364 203.364 0 0 1 3.158-2.828l.467.532c-1.054.91-2.111 1.857-3.15 2.809v.01Zm6.352-5.572-.456-.543a220.68 220.68 0 0 1 3.269-2.697l.445.55a146.564 146.564 0 0 0-3.258 2.675v.015Zm268.415 0A215.507 215.507 0 0 0 481.414 47l.445-.553c1.113.891 2.2 1.798 3.272 2.704l-.452.543Zm-261.847-5.317-.431-.561a193.59 193.59 0 0 1 3.373-2.564l.419.569a141.8 141.8 0 0 0-3.361 2.556Zm255.279 0a209.77 209.77 0 0 0-3.369-2.564l.419-.564c1.114.836 2.264 1.701 3.381 2.567l-.431.561Zm-248.504-5.053-.412-.576c1.15-.82 2.319-1.638 3.477-2.426l.397.583a158.095 158.095 0 0 0-3.462 2.42Zm241.703-.022a198.908 198.908 0 0 0-3.473-2.423l.397-.587c1.172.8 2.345 1.617 3.484 2.434l-.408.576Zm-234.735-4.74-.371-.595c1.176-.77 2.375-1.535 3.57-2.282l.371.602a209.076 209.076 0 0 0-3.57 2.274Zm227.741-.034a194.957 194.957 0 0 0-3.566-2.282l.371-.602c1.199.744 2.404 1.52 3.581 2.29l-.386.594Zm-220.583-4.459-.371-.605a193.025 193.025 0 0 1 3.654-2.137l.349.617c-1.202.702-2.426 1.42-3.632 2.14v-.015Zm213.407-.044c-1.214-.743-2.442-1.442-3.659-2.137l.349-.617c1.221.699 2.456 1.42 3.67 2.144l-.36.61Zm-206.083-4.136-.337-.624a223.757 223.757 0 0 1 3.736-1.984l.323.632a323.39 323.39 0 0 0-3.722 1.991v-.015Zm198.721-.059a211.873 211.873 0 0 0-3.74-1.984l.323-.632c1.25.647 2.512 1.316 3.755 1.992l-.338.624Zm-191.237-3.82-.312-.635c1.262-.62 2.546-1.233 3.815-1.828l.297.64c-1.266.609-2.542 1.222-3.8 1.838v-.014Zm183.712-.074a199.84 199.84 0 0 0-3.821-1.828l.296-.642c1.281.594 2.572 1.214 3.837 1.835l-.312.635ZM266.174 18.44l-.282-.646c1.28-.569 2.597-1.115 3.877-1.672l.275.654c-1.288.553-2.59 1.114-3.87 1.679v-.015Zm168.399-.085a203.188 203.188 0 0 0-3.896-1.676l.271-.654c1.306.546 2.623 1.115 3.91 1.68l-.285.65Zm-160.63-3.17-.259-.657c1.309-.517 2.641-1.03 3.959-1.52l.248.665c-1.313.506-2.642 1.015-3.948 1.527v-.014Zm152.804-.1a212.34 212.34 0 0 0-3.959-1.512l.245-.665c1.317.49 2.657 1 3.974 1.52l-.26.657Zm-144.882-2.842-.23-.669a196.18 196.18 0 0 1 4.018-1.356l.219.672c-1.324.446-2.675.903-4.007 1.368v-.015Zm136.916-.1a197.203 197.203 0 0 0-4.018-1.353l.215-.672c1.343.434 2.701.891 4.037 1.356l-.234.669Zm-128.89-2.52-.204-.68c1.35-.408 2.72-.81 4.081-1.188l.193.68c-1.347.394-2.712.795-4.059 1.203l-.011-.014Zm120.82-.1a193.587 193.587 0 0 0-4.06-1.177l.19-.684c1.354.371 2.727.776 4.081 1.185l-.211.676ZM298.032 7.335l-.179-.687c1.366-.353 2.75-.699 4.115-1.022l.164.687c-1.351.338-2.728.684-4.089 1.037l-.011-.015Zm104.538-.086a235.84 235.84 0 0 0-4.104-1.014l.163-.687c1.366.323 2.75.665 4.119 1.014l-.178.687Zm-96.316-1.857-.148-.695c1.372-.297 2.771-.583 4.152-.855l.137.699c-1.369.271-2.761.557-4.13.855l-.011-.004Zm88.09-.07c-1.366-.294-2.761-.58-4.141-.848l.134-.695c1.387.268 2.782.554 4.155.847l-.148.695Zm-79.775-1.546-.122-.699c1.384-.241 2.79-.472 4.185-.683l.108.698c-1.395.215-2.802.446-4.178.687l.007-.003Zm71.493-.06c-1.38-.238-2.783-.464-4.17-.676l.104-.699c1.395.212 2.801.439 4.189.677l-.123.698Zm-63.141-1.218-.092-.703c1.395-.185 2.812-.371 4.211-.512l.078.702c-1.403.16-2.824.33-4.204.516l.007-.003Zm54.785-.045a198.568 198.568 0 0 0-4.196-.505l.078-.703c1.398.153 2.812.324 4.211.506l-.093.702Zm-46.381-.895-.063-.706c1.403-.127 2.824-.242 4.227-.342l.048.706c-1.406.104-2.824.219-4.223.345l.011-.003Zm37.984-.03a204.286 204.286 0 0 0-4.215-.335l.049-.705c1.398.096 2.82.208 4.23.334l-.064.706ZM339.756.959l-.034-.706c1.403-.07 2.831-.13 4.238-.174l.022.71c-1.414.044-2.835.118-4.237.174l.011-.004Zm21.12 0c-1.396-.07-2.817-.126-4.223-.167l.022-.706c1.41.041 2.835.097 4.238.164l-.037.71ZM348.201.714V.008c1.413 0 2.827-.018 4.241 0v.71c-1.433-.03-2.846-.03-4.252-.015l.011.011Z" fill="#C8C3E2"/><path d="M350.472 402.909a192.435 192.435 0 0 1-129.112-49.984 192.92 192.92 0 0 1-62.27-123.792 193.013 193.013 0 0 1 36.746-133.635c28.367-38.445 69.983-64.97 116.776-74.43a192.354 192.354 0 0 1 136.466 23.236c41.041 24.414 71.563 63.222 85.645 108.894a193.058 193.058 0 0 1-9.43 138.286c-20.152 43.332-55.659 77.624-99.633 96.226a191.783 191.783 0 0 1-75.188 15.199Zm0-386.482c-106.312 0-192.807 86.608-192.807 193.064 0 106.457 86.495 193.065 192.807 193.065 106.312 0 192.813-86.586 192.813-193.057 0-106.471-86.494-193.065-192.813-193.065v-.007Z" fill="#C8C3E2"/><path d="m212.535 189.061-3.525 1.415a2.822 2.822 0 0 1-.026 2.167 2.837 2.837 0 0 1-2.634 1.715 2.82 2.82 0 0 1-2.59-1.779l-3.525 1.412.645 15.374 10.891-4.366 10.886-4.361-10.122-11.577Z" fill="#FAA71A"/><path d="m326.665 335.931-107.867 43.221a5.589 5.589 0 0 1-7.272-3.121L154.44 233.18a5.606 5.606 0 0 1 3.113-7.283l107.867-43.22a5.6 5.6 0 0 1 7.272 3.121l57.09 142.851a5.613 5.613 0 0 1-.053 4.288 5.596 5.596 0 0 1-3.064 2.994Z" fill="#FDC98C"/><path d="m267.156 188.554-106.805 42.797 56.69 141.85 106.805-42.797-56.69-141.85Z" fill="#fff"/><path d="M277.193 264.253c.978-22.073-16.1-40.761-38.145-41.74-22.044-.98-40.707 16.121-41.685 38.194-.978 22.074 16.1 40.762 38.144 41.741 22.045.979 40.708-16.121 41.686-38.195Z" fill="#BCE3DE"/><path d="M203.641 184.658a7.399 7.399 0 0 0-4.643 6.778 7.389 7.389 0 0 0 8.74 7.362 7.387 7.387 0 0 0 5.874-5.741 7.396 7.396 0 0 0-4.318-8.329 7.383 7.383 0 0 0-5.653-.07Zm3.792 9.496a2.825 2.825 0 0 1-3.829-2.112 2.83 2.83 0 0 1 4.381-2.85 2.828 2.828 0 0 1 .997 3.45 2.828 2.828 0 0 1-1.549 1.512ZM233.737 193.72l-46.102 18.366 5.916 14.889 46.102-18.366-5.916-14.889Z" fill="#FDC015"/><path d="m240.871 314.5-27.814 11.146 11.131 27.85 27.813-11.145-11.13-27.851ZM297.017 298.841l-47.223 18.922 2.385 5.967 47.223-18.922-2.385-5.967ZM301.183 310.335l-47.299 18.843 2.375 5.977 47.299-18.842-2.375-5.978Z" fill="#E5E5E5"/><path d="M247.346 234.848c-3.039-.133-6.886 1.828-10.07 3.883-.308.266-.631.514-.968.743-7.792 8.434-14.364 9.403-14.364 9.403a26.331 26.331 0 0 0 9.251-6c-2.06.606-3.585-1.434-9.202.048-8.983 2.371-13.124 7.754-13.254 14.49-.13 6.736 8.003 14.055 8.003 14.055 4.631 4.533 8.813 5.317 10.2 11.005 1.388 5.689 5.299 9.972 8.876 10.467 6.386.88 7.384-4.392 8.285-8.245.052-.219.104-.591.189-1.01.082-1.115.561-4.522 3.34-7.13 3.339-3.151 2.534-2.3 2.534-2.3s-3.688 3.697-4.452 6.859c.742-.342 1.903-.086 3.666 1.449 3.283 2.868 5.587 4.573 8.745 1.935 2.386-1.991 3.34-5.851.238-14.965s2.916-14.152 2.597-21.1c-.319-6.947-5.425-13.219-13.614-13.587Z" fill="#fff"/><path d="M262.537 243.746a1.856 1.856 0 0 1 0 1.461l-8.011 18.725-1.506 3.515a1.917 1.917 0 0 1-2.508 1.007l-3.511-1.509-9.35-4.009a1.922 1.922 0 0 1-1.002-2.511l1.484-3.519a1.87 1.87 0 0 1 1.05-1.018 1.837 1.837 0 0 1 1.459 0l7.599 3.273 7.254-16.979a1.915 1.915 0 0 1 2.508-1.007l3.51 1.509a1.822 1.822 0 0 1 1.024 1.062Z" fill="#94CB70"/><path d="M204.172 390.295a39.41 39.41 0 0 1 9.743 0h62.336c.247-.577.47-1.196.668-1.857.668-2.091.97-4.282.894-6.476a19.423 19.423 0 0 0-.879-5.157c-1.036-3.296-1.017-6.231-1.199-9.764-.033-.643-.426-1.163-.879-1.163H137.658c-.453 0-.85.52-.883 1.163-.412 7.802-.846 16.466 1.889 23.236l65.508.018Z" fill="#F0A631"/><path d="M274.841 365.896H137.658c-.453 0-.85.521-.883 1.163-.028.511-.053 1.023-.078 1.539h.055l.245-.242a2.257 2.257 0 0 1 1.462.242v.245h.245c-.163.568.568.408.742.743.65 1.14.323 2.359.568 3.663.12.451.342.868.649 1.219.082.163-.081.405 0 .487 1.384 1.304 2.598 3.091 4.631 2.931.082 0 .163.241.245.241a7.396 7.396 0 0 0 2.682-.081c1.707-.487 3.006-1.546 4.549-2.519.487-.246 1.14-.327 1.544-.814.082-.082.327.082.49 0v-.245c1.135.082 2.352-.245 3.246.65 1.14 1.059 2.765 1.304 4.308 1.304.164 0 .323.242.486.242 2.598.245 5.039.081 7.232-1.546.082 0 .163-.323.327-.405.742-.163.972-.895 1.217-1.464h.244a.636.636 0 0 0 0-.409c1.948-.405 3.574.409 4.958 1.791.078.164.404 0 .649.082v.242c.241.081.404.081.742.163a7.875 7.875 0 0 0 3.9 0c.245-.082.742 0 .976-.245.241-.16.486-.078.742-.16l.241-.245c.163 0 .326.082.49 0 .742-.65 1.217-1.464 2.029-1.858.164-.082.327-.487.65-.323v-.245h.245v-.246c.408 0 .567-.323.975-.241.082 0 .164-.164.245-.245h.486l.245-.245h.486l.245-.242c1.217-.245 2.516.405 2.679 1.705.572-.159.408.743.742.654.49-.081.572.405.976.324v.245c.408-.082.408.486.976.245.082 0 .163.16.245.241h.486l.245.246c.404.081.812.081 1.217.163 1.943.242 3.908.242 5.851 0a1.3 1.3 0 0 0 .65-.245c.742-.569 2.029-.977 1.788-2.114.159 0 .404-.082.486 0 .742.814 1.217 2.196 2.438 2.196.081 0 .163.245.245.245 1.784.082 3.573.241 5.361-.082.241-.082.65-.082.976-.163.078-.082.16-.246.241-.246.65 0 1.139-.405 1.707-.743.163-.081.327 0 .486 0l.245-.241c.163 0 .327.078.49 0v-.245c.159-.082.404.081.486 0 1.057-1.223 3.087-2.441 4.386-1.223.081.082.408-.078.489 0 .895 1.059 1.707 1.955 2.52 3.092a.745.745 0 0 0 .89.326v.246c2.115-.327 5.039.895 6.583-.977h.245a.394.394 0 0 1 .241-.487c1.625-.572 1.788-2.359 3.169-3.418.163-.082.489 0 .742 0l.241-.246c.649-.241 1.221.164 1.625.573a.745.745 0 0 1 .327.891h.241c-.078 1.141-.078 2.2.571 3.173.241.327.323.327.649.743h.245v.246c1.703.568 3.573.408 5.362.163.568-.082 1.217.082 1.625-.245.405-.242.894-.082 1.299-.164l.245-.241c1.855-.572 3.168-2.523 4.712-3.823.241-.246.894-.164 1.38-.082.082 0 .163.241.245.241.813-.078.976.814 1.707 1.059a.636.636 0 0 0 0 .409h.241v.242c.571-.164.408.568.742.743 1.544.813 3.251.572 4.876.408.163-.081.489-.081.742-.163l.245-.245c.245 0 .567.081.742 0a.685.685 0 0 1 .742-.242v-.245c.163-.082.408.082.486 0 1.855-1.791 3.903-3.66 6.582-3.823.544.01 1.088-.014 1.629-.074-.044-.892-.078-1.806-.13-2.768-.133-.68-.527-1.201-.979-1.201Z" fill="#231F20" style="mix-blend-mode:multiply" opacity=".1"/><path d="M279.868 322.352a14.968 14.968 0 0 0-.92-5.766c-1.681-4.555-4.219-6.966-9.153-8.475-7.64-2.333-16.122-1.95-24.063-.553-7.465 1.319-19.854 5.309-27.26 6.736-16.326 3.15-25.951-2.482-42.036-5.789-10.423-2.144-21.725-6.316-31.791-1.508-11.302 5.402-10.594 17.9-9.933 28.645a1.024 1.024 0 0 0 .905 1.037h141.209a1.031 1.031 0 0 0 .905-1.037c.186-3.143.167-5.762 1.232-8.694a15.13 15.13 0 0 0 .905-4.596Z" fill="#F0A631"/><path d="M199.251 333.502a39.891 39.891 0 0 1-4.949-1.208 22.132 22.132 0 0 1-4.037-1.486c-.193-.104-.26-.319-.371-.371-.898-.413-1.418-1.115-1.997-1.787-1.22-1.631-3.413-2.308-5.565-1.754-2.816.743-4 3.318-5.362 5.313-.252-.769-.156-1.65-.523-2.315-.49-.969-1.269-1.857-1.855-2.887-.06-.052-.123-.256-.297-.3.056-.156-.119-.201-.182-.305-.475-.598-1.402-1.115-2.015-.643-1.213.966-.148 2.668.227 3.931.371 1.163 1.855 3.021.274 3.552-1.996.776-3.914-.453-5.699-1.572-1.436-.865-2.742-1.527-4.2-2.229-1.974-.925-4.271-.223-6.171.453a3.563 3.563 0 0 0-1.399 1.186c-.519.627-.983 1.3-1.447 1.972-.43-1.98-1.22-4.283-3.105-5.075-1.614-.695-3.473 0-4.976.743-3.031 1.464-5.881 3.965-9.317 3.051a11.1 11.1 0 0 1-1.826-.613l.279 4.521a1.024 1.024 0 0 0 .905 1.037h69.174c.365.008.717-.129.981-.382.264-.252.417-.598.425-.963v-3.344a9.697 9.697 0 0 1-2.849 1.419 8.596 8.596 0 0 1-4.123.056Z" fill="#231F20" style="mix-blend-mode:multiply" opacity=".1"/><path d="M156.719 333.743c-1.551-7.059-6.701-9.344-10.553-9.537-3.833.193-8.753 2.467-9.588 9.537-.875 7.409-2.345 14.631 5.009 16.905 1.943.552 3.948.848 5.967.881a22.339 22.339 0 0 0 5.874-.881c7.127-2.274 4.92-9.496 3.291-16.905Z" fill="#fff"/><path d="M179.107 333.743c-1.417-7.059-6.526-9.344-10.389-9.537-3.833.193-8.797 2.467-9.766 9.537-1.013 7.409-2.623 14.631 4.69 16.905 1.933.55 3.928.846 5.937.881a22.54 22.54 0 0 0 5.889-.881c7.198-2.274 5.131-9.496 3.639-16.905Z" fill="#fff"/><path d="M204.776 330.7c-1.45-8.114-7.242-10.726-11.643-10.945-4.393.219-10.126 2.831-11.391 10.945-1.321 8.49-3.314 16.745 4.983 19.342 2.202.633 4.478.97 6.768 1.004a25.622 25.622 0 0 0 6.745-1.004c8.238-2.597 6.063-10.852 4.538-19.342Z" fill="#fff"/><path d="M213.192 333.502a39.89 39.89 0 0 0 4.946-1.208 22.186 22.186 0 0 0 4.037-1.486c.193-.104.259-.319.371-.371.898-.413 1.413-1.115 1.992-1.787 1.221-1.631 3.41-2.308 5.566-1.754 2.82.743 4.007 3.318 5.369 5.313.252-.769.156-1.65.523-2.315.49-.969 1.265-1.857 1.855-2.887.06-.052.119-.256.293-.3-.051-.156.123-.201.182-.305.475-.598 1.407-1.115 2.019-.643 1.213.966.148 2.668-.227 3.931-.371 1.163-1.855 3.021-.267 3.552 1.997.776 3.915-.453 5.696-1.572 1.436-.865 2.742-1.527 4.2-2.229 1.974-.925 4.267-.223 6.167.453a3.565 3.565 0 0 1 1.402 1.186c.52.627.984 1.3 1.447 1.972.431-1.98 1.221-4.283 3.102-5.075 1.614-.695 3.473 0 4.976.743 3.035 1.464 5.885 3.965 9.321 3.047a10.77 10.77 0 0 0 1.825-.609l-.271 4.521a1.035 1.035 0 0 1-.905 1.037H207.63a1.382 1.382 0 0 1-1.41-1.345v-3.344a9.697 9.697 0 0 0 2.849 1.419 8.596 8.596 0 0 0 4.123.056Z" fill="#231F20" style="mix-blend-mode:multiply" opacity=".1"/><path d="M255.717 333.743c1.548-7.059 6.679-9.344 10.545-9.537 3.833.193 8.757 2.467 9.599 9.537.88 7.409 2.364 14.631-4.994 16.905a23.268 23.268 0 0 1-5.963.881 22.361 22.361 0 0 1-5.877-.881c-7.128-2.274-4.927-9.496-3.31-16.905Z" fill="#fff"/><path d="M233.328 333.743c1.414-7.059 6.519-9.344 10.367-9.537 3.833.193 8.798 2.467 9.773 9.537 1.025 7.409 2.642 14.631-4.671 16.905-1.932.55-3.928.846-5.937.881a22.592 22.592 0 0 1-5.896-.881c-7.176-2.274-5.116-9.496-3.636-16.905Z" fill="#fff"/><path d="M207.659 330.7c1.44-8.114 7.228-10.726 11.629-10.945 4.397.219 10.133 2.831 11.402 10.945 1.332 8.49 3.34 16.745-4.957 19.342-2.202.633-4.478.97-6.768 1.004a25.635 25.635 0 0 1-6.746-1.004c-8.24-2.597-6.066-10.852-4.56-19.342ZM156.017 366.695c-1.016 6.272-5.313 8.297-8.604 8.434-3.291-.219-7.514-2.374-8.163-8.731-.649-6.357-1.763-12.376 4.152-14.051a16.186 16.186 0 0 1 9.384.245c5.695 1.954 4.256 7.809 3.231 14.103Z" fill="#fff"/><path d="M171.957 367.015c-.501 6.212-4.538 8.219-7.736 8.352-3.232-.215-7.529-2.344-8.668-8.642-1.139-6.297-2.712-12.26 2.935-13.925a16.982 16.982 0 0 1 4.575-.568c1.568.067 3.121.339 4.62.806 5.725 1.943 4.779 7.743 4.274 13.977Z" fill="#fff"/><path d="M187.378 366.39c0 5.908-3.632 7.803-6.627 7.94-3.05-.208-7.246-2.229-8.801-8.222-1.554-5.993-3.491-11.67 1.685-13.253a15.301 15.301 0 0 1 4.252-.542c1.494.067 2.972.326 4.401.769 5.536 1.843 5.09 7.375 5.09 13.308ZM257.164 366.572c1.021 6.276 5.317 8.3 8.609 8.438 3.291-.219 7.513-2.374 8.163-8.731.649-6.357 1.762-12.376-4.152-14.052a18.295 18.295 0 0 0-4.728-.572 17.93 17.93 0 0 0-4.656.818c-5.699 1.954-4.256 7.809-3.236 14.099Z" fill="#fff"/><path d="M240.605 366.896c.5 6.212 4.537 8.218 7.736 8.352 3.232-.215 7.528-2.344 8.671-8.642 1.143-6.297 2.709-12.26-2.938-13.925a16.947 16.947 0 0 0-4.575-.568 18.056 18.056 0 0 0-4.616.806c-5.729 1.936-4.783 7.743-4.278 13.977Z" fill="#fff"/><path d="M224.2 366.269c0 5.911 3.633 7.802 6.627 7.943 3.05-.208 7.247-2.229 8.802-8.222 1.554-5.993 3.491-11.67-1.685-13.253a15.301 15.301 0 0 0-4.252-.542 17.5 17.5 0 0 0-4.401.769c-5.532 1.843-5.083 7.371-5.091 13.305ZM187.378 367.398c1.926 5.532 6.445 7.207 9.706 7.345 3.236-.138 7.447-1.813 8.353-7.345 1.042-6.361 2.779-13.205-4.505-15.508a22.838 22.838 0 0 0-6.04-.911 20.97 20.97 0 0 0-5.87.911c-6.868 2.303-3.87 9.147-1.644 15.508Z" fill="#fff"/><path d="M223.488 367.398c-1.929 5.532-6.445 7.207-9.71 7.345-3.235-.138-7.443-1.813-8.352-7.345-1.043-6.361-2.779-13.205 4.504-15.508a22.846 22.846 0 0 1 6.041-.911 21.04 21.04 0 0 1 5.874.911c6.857 2.303 3.858 9.147 1.643 15.508Z" fill="#fff"/><path d="m397.943 7.323-1.18.743a1.032 1.032 0 0 1-1.113 1.543 1.031 1.031 0 0 1-.639-.462l-1.179.725 1.179 5.476 3.637-2.229 3.64-2.229-4.345-3.567Z" fill="#FAA71A"/><path d="m447.941 52.978-36.043 22.17a2.035 2.035 0 0 1-2.801-.67l-29.283-47.734a2.03 2.03 0 0 1 .668-2.805l36.043-22.17a2.035 2.035 0 0 1 2.261.085c.217.157.4.355.54.584l29.268 47.735a2.04 2.04 0 0 1-.653 2.805Z" fill="#9C9893"/><path d="m415.875 5.655-35.601 21.808 28.887 47.282 35.602-21.808-28.888-47.282Z" fill="#F1F2F2"/><path d="M394.481 6.295a2.692 2.692 0 0 0-.554 4.124 2.684 2.684 0 0 0 4.147-.252 2.69 2.69 0 0 0-.598-3.761 2.695 2.695 0 0 0-2.995-.111Zm1.944 3.172a1.025 1.025 0 0 1-1.5-.52 1.035 1.035 0 0 1 .265-1.112 1.024 1.024 0 0 1 1.573.213 1.032 1.032 0 0 1-.338 1.405v.014ZM404.114 9.114l-15.34 9.397 3.027 4.955 15.341-9.397-3.028-4.955Z" fill="#FDC015"/><path d="m400.248 26.31-8.746 5.379 5.372 8.756 8.745-5.379-5.371-8.756ZM407.299 37.793l-8.745 5.379 5.372 8.757 8.745-5.38-5.372-8.756ZM412.62 51.046l-8.724 5.344 5.337 8.735 8.723-5.344-5.336-8.735ZM417.164 15.914l-14.848 9.132 1.152 1.877 14.847-9.131-1.151-1.878ZM419.111 19.089l-14.847 9.132 1.151 1.877 14.847-9.132-1.151-1.877ZM424.223 27.42l-14.848 9.132 1.152 1.877 14.847-9.132-1.151-1.877ZM426.174 30.607l-14.847 9.131 1.151 1.878 14.847-9.132-1.151-1.878ZM431.294 38.95l-14.848 9.131 1.152 1.877 14.847-9.131-1.151-1.878ZM433.245 42.129l-14.848 9.132 1.152 1.877 14.847-9.132-1.151-1.877Z" fill="#D1D3D4"/><path d="M450.487 232.173H380.34v156.505h70.147V232.173Z" fill="#E0D8EB"/><path d="M402.325 248.209h-15.402v15.419h15.402v-15.419ZM421.879 248.209H406.48v15.419h15.399v-15.419ZM441.437 248.209h-15.402v15.419h15.402v-15.419ZM402.325 268.803h-15.402v15.418h15.402v-15.418ZM421.879 268.803H406.48v15.418h15.399v-15.418ZM441.437 268.803h-15.402v15.418h15.402v-15.418ZM402.325 289.394h-15.402v15.418h15.402v-15.418ZM421.879 289.394H406.48v15.418h15.399v-15.418ZM441.437 289.394h-15.402v15.418h15.402v-15.418ZM402.325 309.987h-15.402v15.419h15.402v-15.419ZM421.879 309.987H406.48v15.419h15.399v-15.419ZM441.437 309.987h-15.402v15.419h15.402v-15.419ZM402.325 330.578h-15.402v15.419h15.402v-15.419ZM421.879 330.578H406.48v15.419h15.399v-15.419ZM441.437 330.578h-15.402v15.419h15.402v-15.419ZM402.325 351.172h-15.402v15.419h15.402v-15.419ZM421.879 351.172H406.48v15.419h15.399v-15.419ZM441.437 351.172h-15.402v15.419h15.402v-15.419Z" fill="#E8E4E8"/><path d="M529.337 185.59h-83.348v203.646h83.348V185.59Z" fill="#E0D8EB"/><path d="M472.104 204.643h-18.296v18.32h18.296v-18.32ZM495.339 204.643h-18.297v18.32h18.297v-18.32ZM518.577 204.643h-18.296v18.32h18.296v-18.32ZM472.104 229.108h-18.296v18.321h18.296v-18.321ZM495.339 229.108h-18.297v18.321h18.297v-18.321ZM518.577 229.108h-18.296v18.321h18.296v-18.321ZM472.104 253.577h-18.296v18.321h18.296v-18.321ZM495.339 253.577h-18.297v18.321h18.297v-18.321ZM518.577 253.577h-18.296v18.321h18.296v-18.321ZM472.104 278.043h-18.296v18.32h18.296v-18.32ZM495.339 278.043h-18.297v18.32h18.297v-18.32ZM518.577 278.043h-18.296v18.32h18.296v-18.32ZM472.104 302.513h-18.296v18.32h18.296v-18.32ZM495.339 302.513h-18.297v18.32h18.297v-18.32ZM518.577 302.513h-18.296v18.32h18.296v-18.32ZM472.104 326.978h-18.296v18.32h18.296v-18.32ZM495.339 326.978h-18.297v18.32h18.297v-18.32ZM518.577 326.978h-18.296v18.32h18.296v-18.32Z" fill="#E8E4E8"/><path d="M471.12 183.996c0-3.002.889-5.937 2.555-8.434a15.17 15.17 0 0 1 6.804-5.591 15.142 15.142 0 0 1 16.523 3.291 15.188 15.188 0 0 1 3.286 16.544 15.174 15.174 0 0 1-5.584 6.813 15.146 15.146 0 0 1-19.143-1.888 15.188 15.188 0 0 1-4.441-10.735Z" fill="#E83A3A"/><path d="M480.345 181.429h3.376v-3.378a2.288 2.288 0 0 1 2.286-2.288h.549a2.288 2.288 0 0 1 2.286 2.288v3.378h3.372a2.292 2.292 0 0 1 2.29 2.292v.55a2.295 2.295 0 0 1-1.414 2.115 2.285 2.285 0 0 1-.876.174h-3.372v3.377a2.293 2.293 0 0 1-1.411 2.114 2.288 2.288 0 0 1-.875.174h-.549a2.265 2.265 0 0 1-1.617-.669 2.274 2.274 0 0 1-.669-1.619v-3.377h-3.376a2.288 2.288 0 0 1-2.286-2.289v-.55a2.293 2.293 0 0 1 1.41-2.118 2.29 2.29 0 0 1 .876-.174Z" fill="#E0D8EB"/><path d="M147.305 396.518c0 5.696 4.824 10.31 10.801 10.31h395.346c5.962 0 10.797-4.614 10.797-10.31 0-5.692-4.824-10.306-10.797-10.306H158.117c-5.966 0-10.801 4.614-10.801 10.306h-.011Z" fill="#231F20" style="mix-blend-mode:multiply" opacity=".1"/><path d="M282.11 32.039a13.743 13.743 0 0 1-5.122 6.113 13.717 13.717 0 0 1-15.252-.165 13.748 13.748 0 0 1-4.99-6.221 13.76 13.76 0 0 1 3.132-14.947 13.71 13.71 0 0 1 19.414.202 13.742 13.742 0 0 1 3.92 9.766 13.763 13.763 0 0 1-1.102 5.252Z" fill="#91CAC6"/><path d="m263.589 35.581-3.331 7.823 2.581 1.102 3.33-7.823-2.58-1.102Z" fill="#91CAC6"/><path d="M250.641 75.958a2.811 2.811 0 0 1-3.684 1.486 2.812 2.812 0 0 1-1.484-3.686l12.652-29.485a2.809 2.809 0 0 1 2.609-1.71 2.8 2.8 0 0 1 2.576 1.761 2.82 2.82 0 0 1-.02 2.152l-12.649 29.482Z" fill="#38AC88"/><path d="M279.743 31.027A11.173 11.173 0 0 1 275.579 36a11.15 11.15 0 0 1-12.401-.131 11.187 11.187 0 0 1-1.509-17.212 11.149 11.149 0 0 1 15.785.168 11.19 11.19 0 0 1 3.185 7.936 11.201 11.201 0 0 1-.896 4.267Z" fill="#E0F1EE"/><path d="m252.805 56.88-1.226 2.846 5.069 2.19 1.226-2.844-5.069-2.191Z" fill="#91CAC6"/><path d="M286.881 195.262h-4.304v-32.153c0-.1 1.113-10.451-5.295-17.644-4.248-4.771-10.905-7.193-19.776-7.193H226.85c-.085 0-8.805-.784-14.797 4.663-3.904 3.548-5.885 9.024-5.885 16.276h-4.304c0-8.545 2.467-15.102 7.332-19.501 7.09-6.413 16.719-5.841 17.966-5.737h30.344c10.174 0 17.918 2.917 23.005 8.668 7.335 8.267 6.485 19.409 6.341 20.847l.029 31.774Z" fill="#D1D3D4"/><path d="M288.603 191.791h-7.748v199.396h7.748V191.791Z" fill="#F1F2F2"/><path d="M288.277 231.679c-.854 0-1.672.339-2.275.943a3.225 3.225 0 0 0 0 4.556 3.213 3.213 0 0 0 2.275.943h42.963a3.217 3.217 0 0 0 3.217-3.221 3.217 3.217 0 0 0-3.217-3.221h-42.963Z" fill="#D1D3D4"/><path d="M203.523 158.138a22.182 22.182 0 0 0-16.737 3 22.232 22.232 0 0 0-9.715 13.972l43.412 9.515a22.267 22.267 0 0 0-2.999-16.763 22.222 22.222 0 0 0-13.961-9.724Z" fill="#F1F2F2"/><path d="M334.457 221.105h-7.031v17.017h7.031v-17.017Z" fill="#D1D3D4"/><path d="M355.785 223.041a.982.982 0 0 1-.943 1.01h-47.835a.982.982 0 0 1-.943-1.01v-42.214a.98.98 0 0 1 .943-1.011h47.835a.98.98 0 0 1 .943 1.011v42.214Z" fill="#F1F2F2"/><path d="M352.493 216.216a.983.983 0 0 1-.946 1.01h-41.038a.982.982 0 0 1-.881-.634.983.983 0 0 1-.061-.376v-30.332a.985.985 0 0 1 .262-.701.985.985 0 0 1 .68-.31h41.031a.98.98 0 0 1 .946 1.011l.007 30.332Z" fill="#00A88E"/><path d="M288.603 250.728h-7.748v140.459h7.748V250.728Z" fill="#231F20" style="mix-blend-mode:multiply" opacity=".1"/><path d="M311.797 382.757c-1.113 0-68.38-43.997-68.38-43.997l31.717-18.495s109.15 41.195 107.752 57.168c-1.399 15.972-71.089 5.324-71.089 5.324Z" fill="#F1F2F2"/><path d="M370.649 364.299c-16.189.49-70.681 4.733-80.25 5.004 9.803 6.317 21.034 13.454 21.398 13.454 0 0 69.686 10.648 71.089-5.324.3-3.433-4.508-8.033-12.237-13.134ZM306.112 341a88.484 88.484 0 0 1 12.304-3.08c-22.975-9.994-43.275-17.655-43.275-17.655l-31.735 18.495s8.534 5.595 19.606 12.792a45.464 45.464 0 0 0 4.181-.461c13.725-2.244 25.758-6.168 38.919-10.091Z" fill="#231F20" style="mix-blend-mode:multiply" opacity=".1"/><path d="M288.57 297.705c-.98 0-17.492 3.503-18.753 4.064-1.262.561-41.839 15.694-51.913 11.89-10.074-3.805-9.098-14.152-9.098-14.152l-2.29.936c-.43-7.059-20.815-19.483-31.613-28.077-10.916-8.686-14.723-29.459-31.91-27.464-2.389.279-.957-1.947-2.033-1.081-1.035-3.979-11.918-21.519-27.932-10.945-2.809 5.461.838 11.343 8.207 12.461 5.7.866 12.898 4.945 16.623 6.249-.078 1.858 2.074 5.945 2.074 5.945l57.39 49.15c7.124 7.16 8.534 13.858 7.421 16.102-1.113 2.245-5.195 8.405 4.337 14.011 9.533 5.607 23.087 7.007 38.901 4.763 15.814-2.244 34.704-22.697 44.778-28.445 10.074-5.747 17.773-3.191 17.773-3.191s66.606 19.587 71.923 20.706c5.317 1.118 7.31-4.723 7.31-4.723s-100.216-28.199-101.195-28.199Z" fill="#F1F2F2"/><path d="M227.051 318.567h-5.039l.931-22.697 12.597-9.932 2.33 3.404-10.263 8.593-.556 20.632Z" fill="#F1F2F2"/><path d="M280.221 275.142s-33.023 8.032-42.351 15.251l-2.798-5.35c11.213-5.911 39.925-18.495 44.963-15.879 5.039 2.615.186 5.978.186 5.978ZM136.883 230.888c-3.34-3.248-12.594-8.13-20.43-1.962a12.287 12.287 0 0 0-3.421 3.986c7.116-2.184 14.515-3.343 19.665 3.017 3.169 4.184 5.25 12.116 5.699 11.18 3.622-7.583 3.681-11.198-1.513-16.221ZM204.049 304.571l-63.248-54.645s-3.555-8.089 6.437-9.248c17.184-1.995 20.991 18.774 31.91 27.46 10.92 8.687 30.178 20.747 32.934 27.186 2.509 5.885.642 9.247-8.033 9.247ZM291.642 292.522s-6.998-1.962-23.231 5.603c-16.234 7.564-36.103 10.93-40.86 10.648-4.757-.283-14.471-5.573-16.604 0-2.134 5.573-2.709 15.976 19.124 13.713 21.832-2.262 47.297-21.296 58.769-20.174 11.473 1.122 93.478 24.937 96.554 25.22 3.076.282 13.435-6.447 4.2-11.492-9.235-5.045-97.952-23.518-97.952-23.518Z" fill="#018AA9"/><path d="M384.845 379.253a11.632 11.632 0 0 1-7.172 10.745c-1.409.584-2.92.885-4.445.884H214.546a11.592 11.592 0 0 1-8.214-3.405 11.632 11.632 0 0 1-2.519-12.675 11.632 11.632 0 0 1 6.288-6.294 11.61 11.61 0 0 1 4.445-.884h158.682a11.61 11.61 0 0 1 10.733 7.178 11.66 11.66 0 0 1 .884 4.451Z" fill="#F1F2F2"/><path d="M288.57 297.705c-.98 0-17.491 3.503-18.753 4.064-1.262.561-41.839 15.694-51.913 11.889-10.074-3.804-9.098-14.151-9.098-14.151s-23.105-18.547-33.903-27.122c-10.916-8.687-14.723-29.459-31.909-27.464-2.39.278-.958-1.947-2.034-1.082-1.035-3.979-11.918-21.519-27.932-10.945a7.754 7.754 0 0 0-.609 5.945c3.447-2.408 8.616-3.095 12.616-2.371a12.174 12.174 0 0 1 6.815 3.637 12.197 12.197 0 0 1 3.259 7.011c.162 1.133.213 2.279.152 3.422.979.431 1.855.803 2.597 1.063-.078 1.858 2.074 5.944 2.074 5.944l3.54 3.032h.026c8.248-1.943 14.152 5.595 19.124 10.856 6.419 6.796 13.417 12.893 20.407 19.071 4.082 3.597 8.045 7.282 11.874 11.146 1.959 1.958 4.081 3.928 6.512 5.258 1.558.843 4.582 1.025 5.447 2.716.705 1.378.267 3.381-.049 4.83-.219 1.014-2.111 3.99-1.988 4.573.371 1.691.282 3.013-.108 3.797-1.087 2.174-4.942 8.048 3.532 13.513a5.304 5.304 0 0 1 1.83-3.715c3.339-2.806 7.836-3.084 12.033-3.366 20.99-.84 40.021-10.088 59.052-18.206 7.962-3.373 16.697-3.555 25.097-1.653 1.434-.009 2.862.18 4.245.561 0 0 66.606 19.587 71.923 20.706 5.317 1.118 7.31-4.723 7.31-4.723s-100.19-28.236-101.169-28.236Z" fill="#231F20" style="mix-blend-mode:multiply" opacity=".1"/><path d="M524.079 76.957s3.025 21.802 23.833 23.86c-20.808 2.058-23.833 23.86-23.833 23.86s-3.024-21.802-23.828-23.86c20.804-2.058 23.828-23.86 23.828-23.86ZM503.338 110.224s1.681 12.097 13.22 13.237c-11.539 1.141-13.22 13.238-13.22 13.238s-1.677-12.097-13.22-13.238c11.535-1.14 13.22-13.237 13.22-13.237ZM145.621 153.979s-2.846 20.502-22.412 22.438c19.566 1.935 22.412 22.437 22.412 22.437s2.846-20.502 22.407-22.437c-19.561-1.929-22.407-22.438-22.407-22.438ZM165.115 185.271s-1.577 11.376-12.43 12.446c10.853 1.074 12.43 12.45 12.43 12.45s1.581-11.376 12.434-12.45c-10.846-1.07-12.434-12.446-12.434-12.446Z" fill="#FFE785"/><path d="M376.652 94.794a41.163 41.163 0 0 0 4.553-1.26c3.814-.743 7.792-1.39 11.759-1.857-17.354.743-30.148 8.657-39.702 8.014-10.709 4.741-24.604 8.337-42.114 8.3-.015-.004 25.131 6.004 65.504-13.197Z" fill="#E4E0C4"/><path d="M277.097 213.273h141.071c9.21-20.579 27.899-30.748 34.708-50.376 8.875-25.584-.579-55.608-29.661-68.801-7.944-3.604-19.128-3.716-30.259-2.419a159.127 159.127 0 0 0-11.759 1.858 41.229 41.229 0 0 1-4.552 1.26c-40.374 19.2-65.52 13.193-65.52 13.193 17.51.037 31.406-3.56 42.114-8.3-8.315-.788-10.886-10.374-33.338-13.153-35.914-4.458-58.651 9.021-68.855 33.163-10.204 24.143 8.638 62.418 8.638 62.418 5.888 13.324 13.035 21.928 17.413 31.157Z" fill="#fff"/><path d="M413.76 213.273H280.043v26.402H413.76v-26.402ZM381.517 356.838c0 18.391-33.502 36.968-33.502 36.968s-33.368-18.811-33.368-36.968V242.212h66.87v114.626Z" fill="#D1D3D4"/><path d="M381.676 249.914H314.05l-25.135-10.239h117.9l-25.139 10.239Z" fill="#D1D3D4"/><path d="M357.18 288.353c-8.953-3.043-33.413-10.132-42.533-11.09v5.201s49.201 7.613 66.87 21.716V301c-.624-.36-10.872-8.125-24.337-12.647ZM357.18 273.243c-8.953-3.04-33.413-10.132-42.533-11.091v5.573c24.489 1.921 49.201 7.238 66.87 21.341v-3.18c-.624-.349-10.872-8.114-24.337-12.643ZM357.18 306.755c-8.953-3.043-33.413-10.131-42.533-11.09v6.966c24.489 1.921 49.201 5.859 66.87 19.963v-3.18c-.624-.372-10.872-8.137-24.337-12.659ZM357.18 326.926c-8.953-3.043-33.413-10.135-42.533-11.094v5.228c24.489 1.92 49.201 7.597 66.87 21.701v-3.18c-.624-.372-10.872-8.137-24.337-12.655ZM357.18 346.301c-8.953-3.043-33.413-10.135-42.533-11.09v6.966c24.489 1.921 49.201 5.856 66.87 19.963v-3.184c-.624-.368-10.872-8.137-24.337-12.655ZM314.647 247.325s2.694-6.346 5.388-7.245c.371-.141.742-.271 1.113-.405h-32.226l25.135 10.239h.59v.409c14.649.55 66.87 20.022 66.87 20.022v-2.493s-46.303-19.338-66.87-20.527ZM413.76 213.273H280.043v4.819H413.76v-4.819Z" fill="#231F20" style="mix-blend-mode:multiply" opacity=".1"/><path d="m415.486 353.268 5.094 15.489 8.954-5.588-3.325-16.574-10.723 6.673Z" fill="#89B8BD"/><path d="M404.636 320.428c-1.083-2.092.56-3.051 2.167-6.134 1.507-2.887 6.048-9.263 6.048-9.263 3.952-4.213 9.755 1.349 10.638 4.949.542 2.229.108 5.373-1.796 6.365l-11.161 5.573c-1.907.992-4.823.605-5.896-1.486v-.004Z" fill="#D4EAED"/><path d="m413.586 344.336 24.226.334.501-37.187s-3.295-4.257-7.073-4.157l-16.719.435-.935 40.575Z" fill="#3DBDAC"/><path d="M422.072 304.035a2.966 2.966 0 0 0 .924 2.095 2.962 2.962 0 0 0 2.137.815 2.992 2.992 0 0 0 2.909-3.066l-.096-3.57a2.992 2.992 0 0 0-.923-2.097 2.969 2.969 0 0 0-2.139-.816 2.965 2.965 0 0 0-2.713 1.916c-.14.368-.205.76-.192 1.153l.093 3.57Z" fill="#ECDAC7"/><path d="M410.395 292.084a10.871 10.871 0 0 0 3.387 7.576 10.838 10.838 0 0 0 15.316-.399 10.87 10.87 0 0 0 2.988-7.742c-.155-6-5.15-10.99-11.131-10.581-12.575.85-3.833 12.208-10.56 11.146Z" fill="#ECDAC7"/><path d="m382.626 322.977 24.122-7.621 2.445 7.108-25.046 2.764-1.521-2.251Z" fill="#D4EAED"/><path d="M438.609 343.144h-24.8v10.124h24.8v-10.124Z" fill="#00A9DB"/><path d="m445.856 366.086-5.31 2.671-11.239-21.155 9.436-4.748 7.113 23.232Z" fill="#00A9DB"/><path d="m469.131 387.341-2.582 2.972-26.003-21.556 4.415-5.588 24.17 24.172Z" fill="#00A9DB"/><path d="m465.789 387.304 3.907-.528.649 8.092h-.082l-14.797.023-.089-1.115h.167c.842-8.192 7.336-1.642 10.245-6.472Z" fill="#9E968C"/><path d="m394.499 357.362-1.406-4.585 20.716-9.633 5.217 9.433-24.527 4.785Z" fill="#00A9DB"/><path d="m407.935 387.612-3.759 1.163-9.676-31.413 5.68-1.754 7.755 32.004Z" fill="#00A9DB"/><path d="M393.264 393.776c1.484-8.092 7.451-2.229 10.731-6.784l3.94-.212v8.118h-14.842v-1.114l.171-.008Z" fill="#9E968C"/><path d="M411.467 278.656c1.893.884 2.252 1.553 6.104.583 5.436-1.371 13.094-1.486 12.987-.773a11.512 11.512 0 0 1 5.62 5.013 11.532 11.532 0 0 1-2.221 14.069 11.496 11.496 0 0 1-6.891 3.032c.296-1.327.324-2.7.082-4.038.459.231.97.343 1.484.327a3.13 3.13 0 0 0 2.731-1.747 3.144 3.144 0 0 0-.275-3.233 3.13 3.13 0 0 0-5.488.807 9.371 9.371 0 0 1-.426-4.915c-3.195.438-5.967 1.066-10.445-.167-4.078-1.256-6.089-4.548-3.262-8.958Z" fill="#F2BD69"/><path d="m385.888 322.178-.371 2.534c-1.217 2.519-4.509-2.452-4.494-5.306-.137-5.599 3.514 2.397 4.865 2.772Z" fill="#ECDAC7"/><path d="m428.016 303.018-5.195 69.477 22.634-7.289-6.137-55.697s-3.8-9.382-11.302-6.491ZM422.057 303.563l-4.386 21.096-3.94 13.32-.011-33.691 1.191-.695 7.146-.03Z" fill="#D4EAED"/><path d="M440.502 320.034s-22.363 12.071-26.571 9.355c0 0 9.417-2.103 10.946-7.839 1.336-5.001 7.094-13.119 7.094-13.119l6.401.631 2.13 10.972Z" fill="#231F20" style="mix-blend-mode:multiply" opacity=".2"/><path d="M416.194 326.695c-1.361-1.917-.842-4.22 2.598-7.304 4.871-4.366 9.02-12.491 9.02-12.491 4.823-5.792 10.389-1.014 11.502 2.601.698 2.229.2 5.77-2.137 7.43l-14.304 10.203c-2.338 1.672-5.339 1.486-6.705-.45l.026.011Z" fill="#D4EAED"/><path d="m384.819 332.343 31.876-10.711 4.334 6.427-35.513 6.655-.697-2.371Z" fill="#D4EAED"/><path d="m386.53 330.526.578 2.501c.134 5.51-5.806-.691-6.879-3.366-2.285-5.198 4.716.992 6.301.865Z" fill="#ECDAC7"/><path d="M345.7 49.672h-7.577c-.334 3.388 4.675 6.992 7.577 0Z" fill="#fff"/><path d="m199.073 351.953 19.718-3.225s2.204-7.115 1.855-6.576c-.349.538 1.31 5.573 1.31 5.573l15.32-8.319-10.63-19.543-21.254 3.032-6.319 29.058Z" fill="#D4EAED"/><path d="M219.744 291.634c-1.9-2.333-3.992-4.934-2.067-7.921 1.596-2.319 4.026-3.805 5.566-6.212 1.306-1.962 1.484-3.69.419-5.822-.549-1.189-1.317-1.936-1.376-3.214-.104-1.527.686-2.051 1.484-3.21 3.688-4.808-.85-9.816-6.081-9.835l-1.64-4.05c-2.509-.371-6.479 2.512-7.655 4.652-1.05 1.858-4.156 5.057-3.711 7.104.397 2.281 1.232 2.794-1.276 4.273-1.484.98-3.143.906-2.772 3.343.316 1.713 3.47 4.7 1.562 6.42-1.554 1.449-5.469-.055-5.606 3.185-.085 1.181 1.25 1.857.92 3.068-.371 1.383-2.174 1.364-3.209 1.936-2.754 1.52-3.292 4.782-.772 6.647 1.157.799 2.2 1.263 2.052 2.909-.119 1.416-1.462 1.943-2.026 3.132-.954 2.252 1.755 4.459 3.547 5.268 2.256.874 4.404 1.416 6.553 2.512 2.523 1.23 5.936.197 8.5-.632 2.909-.943 6.965-2.121 8.56-4.997 1.663-3.02 1.121-5.959-.972-8.556Z" fill="#F7941D"/><path d="m234.059 320.692-25.654-3.608 2.479-14.969-2.735-22.883 20.485-1.378-.178 22.288 5.603 20.55Z" fill="#3DBDAC"/><path d="M221.514 278.815a3.125 3.125 0 0 1-4.113 3.192 3.117 3.117 0 0 1-1.809-1.573 3.127 3.127 0 0 1-.319-1.18l-.249-3.715a3.126 3.126 0 0 1 4.114-3.174 3.126 3.126 0 0 1 2.127 2.754l.249 3.696Z" fill="#ECDAC7"/><path d="M232.483 265.262a11.37 11.37 0 0 1-2.779 8.236 11.334 11.334 0 0 1-16.004 1.074 11.359 11.359 0 0 1-3.851-7.79c-.42-6.253 4.293-11.926 10.549-12.082 13.186-.327 5.198 12.323 12.085 10.562Z" fill="#ECDAC7"/><path d="m208.397 317.075-1.267 9.036 25.655 3.606 1.267-9.036-25.655-3.606Z" fill="#3DBDAC"/><path d="m207.73 352.488 5.529 2.515 6.578-27.538-12.107-1.141v26.164Z" fill="#00B095"/><path d="m190.373 380.902 3.38 2.341 19.506-28.24-5.11-3.537-17.776 29.436Z" fill="#00B095"/><path d="M193.753 383.243c.118 6.123 7.495 9.196 4.679 13.275l-9.369-6.483s.026-.034.033-.048c.007-.015 1.443-3.177.846-3.589a1.308 1.308 0 0 0-1.822.33l-1.209 1.817-1.232-.854 4.823-6.974 3.251 2.526Z" fill="#F9A05C"/><path d="M226.653 352.488h6.208l.575-25.023h-11.028l4.245 25.023Z" fill="#00B095"/><path d="M228.75 386.821h4.111v-34.334h-6.208l2.097 34.334Z" fill="#00B095"/><path d="M232.861 386.822c3.576 4.967 11.387 3.295 11.387 8.259h-11.387v-.056s-.62-3.436-1.344-3.436a1.31 1.31 0 0 0-1.309 1.311l.033 2.181h-1.484v-8.478l4.104.219Z" fill="#F9A05C"/><path d="M235.71 307.372c2.29-.888 3.711-1.353 2.323-6.071-1.933-6.643-5.258-15.478-6.471-18.949-1.213-3.47-2.326-5.461-7.072-3.403-2.779 1.204-2.571 5.023-1.484 7.825l7.499 17.272c1.083 2.798 2.924 4.217 5.194 3.344l.011-.018Z" fill="#D4EAED"/><path d="m260.99 296.791-25.383 2.482-1.73 8.828 28.04-8.902-.927-2.408Z" fill="#D4EAED"/><path d="M264.663 291.846c1.484-2.229 6.605 3.102 5.265 5.395-1.339 2.292-4.501 4.124-6.79 2.783-2.289-1.342-2.653-3.344-2.059-5.978.775-3.433 2.033.145 3.584-2.2Z" fill="#ECDAC7"/><path d="M196.795 305.994c2.149 1.197 3.403 1.977 6.141-2.099 3.859-5.74 8.504-13.959 10.389-17.12 1.885-3.162.835-5.603-1.922-7.617-2.445-1.787-5.499 1.241-6.953 3.868l-8.445 16.827c-1.455 2.626-1.366 4.945.783 6.141h.007Z" fill="#D4EAED"/><path d="M233.67 256.873a.986.986 0 0 0 .419-.743c.13-2.047-1.176-3.504-2.827-1.906-.831.836-1.113.873-2.397.059-5.351-3.455-12.037-3.399-12.827-2.92-4.865-.52-10.464 5.202-11.132 10.032a12.044 12.044 0 0 0 2.108 8.647 12.014 12.014 0 0 0 7.465 4.832 10.483 10.483 0 0 1 .045-2.601c.074-.538.189-1.07.345-1.59a3.267 3.267 0 0 1-4.363-2.735 3.27 3.27 0 0 1 5.458-2.757 3.27 3.27 0 0 1 .979 1.684c.471-1.003 2.542-1.561 3.492-5.792.37-.089.71-.277.983-.543-.271 2.504 4.708 2.645 5.603.788-.653 1.259.805 1.623 1.762 1.597a2.593 2.593 0 0 0 2.75-1.571c.742 2.166 3.135.836 3.821-.654.731-1.817-.549-2.872-1.684-3.827Z" fill="#F7941D"/><path d="m209.325 278.656 5.915.097-8.479 72.579-13.74-.754 16.304-71.922ZM221.633 278.326l5.124 72.025 13.888-7.991-11.55-42.809-1.499-21.712-5.963.487ZM184.488 327.799l19.053-25.264-6.512-4.678-14.653 28.464 2.112 1.478Z" fill="#D4EAED"/><path d="M187.378 331.303c.371 2.623-6.983 2.111-7.517-.487-.535-2.597.593-6.082 3.187-6.617 2.593-.535 4.215.721 5.528 3.066 1.715 3.072-1.61 1.255-1.198 4.038Z" fill="#ECDAC7"/><path d="m271.639 282.304-29.391-7.475-9.74 38.584 29.391 7.472 9.74-38.581Z" fill="#F1F2F2"/><path d="m243.188 277.97-7.791 30.74 26.136 6.641 7.791-30.739-26.136-6.642Z" fill="#9BDBEF"/><path d="M254.385 300.607s.349-.067-1.028.126a3.38 3.38 0 0 0-2.063 1.182 4.56 4.56 0 0 1 .802-.372c.735-.665 2.289-.936 2.289-.936ZM257.008 289.591c.124.008.248.008.372 0 .304 0 .615.037.923.074-1.324-.256-2.434.112-3.142-.111a7.89 7.89 0 0 1-3.34-.13s1.796.91 5.187.167Z" fill="#E4E0C4"/><path d="M260.537 290.385a4.657 4.657 0 0 0-2.226-.743c-.308-.037-.62-.059-.924-.074a2.87 2.87 0 0 1-.371 0c-3.391.743-5.195-.182-5.195-.182a7.89 7.89 0 0 0 3.34.13c-.616-.208-.639-.977-2.282-1.59-2.631-.981-4.59-.372-5.792 1.267-1.202 1.638-.468 4.867-.468 4.867.371 1.928 1.254 2.85.609 4.495-.646 1.646-.427 3.389.371 4.132 1.425 1.334 2.597.204 3.48-.591.052-.044.13-.126.223-.215a3.38 3.38 0 0 1 2.063-1.182c1.376-.193 1.028-.126 1.028-.126s-1.555.271-2.29.921c.249.049.486.312.653.996.312 1.282.587 2.107 1.826 2.006.935-.078 1.855-.865 2.66-3.656.805-2.79 3.18-2.972 4.308-4.763a4.225 4.225 0 0 0-1.013-5.692Z" fill="#fff"/><g opacity=".3"><path opacity=".3" d="m243.188 277.971-7.791 30.74 26.136 6.641 7.791-30.739-26.136-6.642Z" fill="#94CB70"/><g opacity=".3"><path opacity=".3" d="M270.236 305.991s.349-.067-1.027.126a3.37 3.37 0 0 0-2.063 1.181c.254-.149.522-.274.801-.371.735-.665 2.289-.936 2.289-.936ZM272.86 294.987c.123.008.247.008.371 0 .3 0 .612.037.92.07-1.325-.253-2.43.115-3.143-.108a7.87 7.87 0 0 1-3.339-.13s1.8.892 5.191.168Z" fill="#E4E0C4"/><path opacity=".3" d="M276.388 295.77a4.693 4.693 0 0 0-2.226-.743c-.308-.033-.62-.055-.92-.07a2.87 2.87 0 0 1-.371 0c-3.391.743-5.195-.182-5.195-.182a7.907 7.907 0 0 0 3.34.13c-.613-.208-.635-.977-2.282-1.591-2.631-.98-4.59-.371-5.792 1.267-1.202 1.639-.468 4.868-.468 4.868.371 1.924 1.254 2.849.609 4.495-.646 1.646-.427 3.388.371 4.132 1.425 1.333 2.597.204 3.48-.591.052-.045.13-.127.223-.216a3.373 3.373 0 0 1 2.063-1.181c1.376-.193 1.028-.126 1.028-.126s-1.555.271-2.29.921c.249.048.486.312.653.999.312 1.278.586 2.103 1.826 2.003.935-.078 1.855-.866 2.66-3.656.805-2.79 3.18-2.972 4.308-4.763a4.228 4.228 0 0 0-1.017-5.696Z" fill="#fff"/><path opacity=".3" d="M238.067 295.908s.371-.067-1.025.126a3.4 3.4 0 0 0-2.063 1.181 4.74 4.74 0 0 1 .802-.371c.735-.661 2.286-.936 2.286-.936ZM240.69 284.906h.371c.301 0 .612.034.92.071-1.32-.256-2.43.112-3.139-.108a8.018 8.018 0 0 1-3.339-.13s1.796.892 5.187.167Z" fill="#E4E0C4"/><path opacity=".3" d="M244.219 285.69a4.66 4.66 0 0 0-2.227-.743 11.179 11.179 0 0 0-.92-.07h-.371c-3.391.743-5.194-.179-5.194-.179a8.017 8.017 0 0 0 3.339.13c-.616-.211-.638-.981-2.282-1.594-2.634-.98-4.59-.371-5.796 1.267-1.206 1.639-.463 4.867-.463 4.867.371 1.929 1.25 2.85.604 4.496-.645 1.646-.423 3.388.371 4.135 1.425 1.33 2.598.201 3.481-.594.052-.045.126-.127.222-.216a3.393 3.393 0 0 1 2.063-1.181c1.377-.193 1.024-.126 1.024-.126s-1.55.271-2.285.925c.245.044.486.308.653.995.312 1.282.586 2.103 1.822 2.003.938-.078 1.855-.866 2.66-3.656.805-2.79 3.184-2.972 4.312-4.759a4.229 4.229 0 0 0-1.013-5.7Z" fill="#fff"/></g></g></svg>