<svg width="34" height="28" viewBox="0 0 34 28" fill="none" xmlns="http://www.w3.org/2000/svg">
<path fill-rule="evenodd" clip-rule="evenodd" d="M29.846 0.955976C29.7748 0.988467 25.8006 5.23737 21.0144 10.398L12.3121 19.781L8.00779 15.1448C3.94726 10.771 3.69064 10.5085 3.47641 10.5085C3.26606 10.5085 3.13581 10.6311 1.71434 12.1678C0.4083 13.5796 0.179443 13.8576 0.179443 14.0319C0.179443 14.2106 0.930069 15.0465 6.05129 20.5697C9.28077 24.0528 12.0062 26.95 12.1077 27.008C12.2529 27.091 12.3294 27.0969 12.4664 27.0358C12.5621 26.993 17.2906 21.9466 22.974 15.8214C32.0288 6.06289 33.3076 4.65937 33.3076 4.47949C33.3076 4.30441 33.0815 4.03096 31.7709 2.62151C30.9258 1.71254 30.176 0.95263 30.1048 0.932898C30.0336 0.913097 29.9172 0.923485 29.846 0.955976Z" fill="white"/>
</svg>
