<svg width="32" height="32" viewBox="0 0 32 32" fill="none" xmlns="http://www.w3.org/2000/svg"><circle cx="16" cy="16" r="16" fill="url(#paint0_linear)"/><g clip-path="url(#clip0)"><path d="M25.5813 12.0448C25.5363 11.0247 25.3713 10.3233 25.135 9.71558C24.8912 9.07049 24.5161 8.49293 24.0247 8.01281C23.5446 7.52521 22.9632 7.14633 22.3256 6.90634C21.7143 6.67002 21.0166 6.50504 19.9965 6.46006C18.9687 6.41128 18.6424 6.39999 16.0356 6.39999C13.4289 6.39999 13.1026 6.41128 12.0786 6.45625C11.0585 6.50123 10.3571 6.66635 9.74951 6.90253C9.10427 7.14633 8.52671 7.5214 8.04659 8.01281C7.559 8.49293 7.18026 9.0743 6.94013 9.71192C6.7038 10.3233 6.53883 11.0209 6.49385 12.041C6.44506 13.0688 6.43378 13.3951 6.43378 16.0019C6.43378 18.6086 6.44506 18.9349 6.49004 19.9589C6.53502 20.9791 6.70014 21.6804 6.93646 22.2882C7.18026 22.9333 7.559 23.5108 8.04659 23.9909C8.52671 24.4785 9.10808 24.8574 9.7457 25.0974C10.3571 25.3337 11.0546 25.4987 12.075 25.5437C13.0988 25.5888 13.4252 25.5999 16.032 25.5999C18.6387 25.5999 18.965 25.5888 19.989 25.5437C21.0092 25.4987 21.7105 25.3337 22.3181 25.0974C23.6085 24.5985 24.6286 23.5784 25.1275 22.2882C25.3637 21.6768 25.5288 20.9791 25.5738 19.9589C25.6188 18.9349 25.63 18.6086 25.63 16.0019C25.63 13.3951 25.6262 13.0688 25.5813 12.0448ZM23.8523 19.8839C23.8109 20.8216 23.6534 21.3279 23.5222 21.6655C23.1995 22.5019 22.5357 23.1658 21.6992 23.4884C21.3617 23.6197 20.8517 23.7772 19.9177 23.8183C18.905 23.8635 18.6012 23.8746 16.0395 23.8746C13.4777 23.8746 13.1701 23.8635 12.1611 23.8183C11.2234 23.7772 10.7171 23.6197 10.3795 23.4884C9.96327 23.3346 9.58439 23.0908 9.27686 22.7719C8.95805 22.4606 8.71425 22.0855 8.56041 21.6693C8.42914 21.3317 8.27163 20.8216 8.23046 19.8877C8.18534 18.875 8.1742 18.5711 8.1742 16.0093C8.1742 13.4476 8.18534 13.14 8.23046 12.1311C8.27163 11.1935 8.42914 10.6871 8.56041 10.3495C8.71425 9.93316 8.95805 9.55442 9.28067 9.24674C9.59186 8.92793 9.96694 8.68413 10.3833 8.53044C10.7209 8.39916 11.231 8.24166 12.1649 8.20035C13.1776 8.15537 13.4815 8.14408 16.0431 8.14408C18.6087 8.14408 18.9124 8.15537 19.9215 8.20035C20.8591 8.24166 21.3655 8.39916 21.7031 8.53044C22.1193 8.68413 22.4982 8.92793 22.8057 9.24674C23.1245 9.55808 23.3683 9.93316 23.5222 10.3495C23.6534 10.6871 23.8109 11.1971 23.8523 12.1311C23.8972 13.1438 23.9085 13.4476 23.9085 16.0093C23.9085 18.5711 23.8972 18.8712 23.8523 19.8839Z" fill="white"/><path d="M16.0356 11.0697C13.3127 11.0697 11.1034 13.2788 11.1034 16.0019C11.1034 18.725 13.3127 20.9341 16.0356 20.9341C18.7587 20.9341 20.9678 18.725 20.9678 16.0019C20.9678 13.2788 18.7587 11.0697 16.0356 11.0697ZM16.0356 19.2013C14.2691 19.2013 12.8362 17.7685 12.8362 16.0019C12.8362 14.2352 14.2691 12.8025 16.0356 12.8025C17.8023 12.8025 19.235 14.2352 19.235 16.0019C19.235 17.7685 17.8023 19.2013 16.0356 19.2013Z" fill="white"/><path d="M22.3145 10.8746C22.3145 11.5105 21.7989 12.0261 21.1629 12.0261C20.527 12.0261 20.0114 11.5105 20.0114 10.8746C20.0114 10.2386 20.527 9.72319 21.1629 9.72319C21.7989 9.72319 22.3145 10.2386 22.3145 10.8746Z" fill="white"/></g><defs><linearGradient id="paint0_linear" x1="2.14853" y1="29.9152" x2="31.7987" y2="4.24828" gradientUnits="userSpaceOnUse"><stop stop-color="#FFDD55"/><stop offset="0.5" stop-color="#FF543E"/><stop offset="1" stop-color="#C837AB"/></linearGradient><clipPath id="clip0"><rect width="19.2" height="19.2" fill="white" transform="translate(6.40002 6.39999)"/></clipPath></defs></svg>