<svg width="38" height="31" viewBox="0 0 38 31" fill="none" xmlns="http://www.w3.org/2000/svg">
<path d="M28.9586 14.2398C27.9103 14.4919 26.9057 14.4499 25.9448 14.1138C24.9839 13.8618 24.154 13.3997 23.4552 12.7276C22.669 12.0556 22.0575 11.2575 21.6207 10.3333C21.0966 9.40922 20.8345 8.40108 20.8345 7.30894C20.8345 5.20867 21.6207 3.44444 23.1931 2.01626C24.7655 0.672089 26.6874 0 28.9586 0C32.0161 0 34.2874 1.05014 35.7724 3.15041C37.2575 5.33469 38 8.10705 38 11.4675C38 16.0041 36.908 19.9526 34.7241 23.313C32.4529 26.7575 28.9586 29.3198 24.2414 31L22.4069 28.6057C25.8138 27.0935 28.3471 25.2033 30.0069 22.935C31.6667 20.6667 32.4966 18.1463 32.4966 15.374C32.4966 14.4499 32.3218 13.9038 31.9724 13.7358C31.5356 13.5678 31.0552 13.5678 30.531 13.7358L28.9586 14.2398ZM7.9931 14.2398C5.98391 14.6599 4.14943 14.1558 2.48966 12.7276C0.829887 11.2995 0 9.49323 0 7.30894C0 5.20867 0.786209 3.44444 2.35862 2.01626C3.84368 0.672089 5.72184 0 7.9931 0C11.0506 0 13.3655 1.05014 14.9379 3.15041C16.423 5.33469 17.1655 8.10705 17.1655 11.4675C17.1655 16.0041 16.0299 19.9526 13.7586 23.313C11.4874 26.7575 7.9931 29.3198 3.27586 31L1.44138 28.6057C4.84828 27.0935 7.42529 25.2033 9.17241 22.935C10.8322 20.6667 11.6621 18.1463 11.6621 15.374C11.6621 14.4499 11.4874 13.9038 11.1379 13.7358C10.7012 13.5678 10.177 13.5678 9.56552 13.7358L7.9931 14.2398Z" fill="url(#paint0_radial_1305_86)"/>
<defs>
<radialGradient id="paint0_radial_1305_86" cx="0" cy="0" r="1" gradientUnits="userSpaceOnUse" gradientTransform="translate(18.9413 15.5) scale(18.2675 256.012)">
<stop stop-color="#46CDAC"/>
<stop offset="1" stop-color="#46CDAC"/>
</radialGradient>
</defs>
</svg>
