<svg width="36" height="36" viewBox="0 0 36 36" fill="none" xmlns="http://www.w3.org/2000/svg">
<path fill-rule="evenodd" clip-rule="evenodd" d="M24.3334 13.2503C24.3334 14.93 23.6662 16.5409 22.4784 17.7287C21.2907 18.9164 19.6798 19.5837 18.0001 19.5837C16.3204 19.5837 14.7095 18.9164 13.5217 17.7287C12.334 16.5409 11.6667 14.93 11.6667 13.2503C11.6667 11.5706 12.334 9.95971 13.5217 8.77198C14.7095 7.58425 16.3204 6.91699 18.0001 6.91699C19.6798 6.91699 21.2907 7.58425 22.4784 8.77198C23.6662 9.95971 24.3334 11.5706 24.3334 13.2503ZM21.1667 13.2503C21.1667 14.0902 20.8331 14.8956 20.2393 15.4895C19.6454 16.0834 18.8399 16.417 18.0001 16.417C17.1602 16.417 16.3548 16.0834 15.7609 15.4895C15.167 14.8956 14.8334 14.0902 14.8334 13.2503C14.8334 12.4105 15.167 11.605 15.7609 11.0112C16.3548 10.4173 17.1602 10.0837 18.0001 10.0837C18.8399 10.0837 19.6454 10.4173 20.2393 11.0112C20.8331 11.605 21.1667 12.4105 21.1667 13.2503Z" fill="#7D5FBA"/>
<path fill-rule="evenodd" clip-rule="evenodd" d="M18 0.583496C8.38129 0.583496 0.583374 8.38141 0.583374 18.0002C0.583374 27.6189 8.38129 35.4168 18 35.4168C27.6188 35.4168 35.4167 27.6189 35.4167 18.0002C35.4167 8.38141 27.6188 0.583496 18 0.583496ZM3.75004 18.0002C3.75004 21.3093 4.87896 24.3557 6.77104 26.775C8.09982 25.03 9.81405 23.6158 11.7798 22.643C13.7456 21.6701 15.9096 21.1649 18.103 21.1668C20.2679 21.1648 22.4047 21.6569 24.3507 22.6057C26.2966 23.5546 28.0003 24.935 29.332 26.642C30.7038 24.8427 31.6275 22.7426 32.0266 20.5154C32.4257 18.2883 32.2887 15.9981 31.627 13.8344C30.9653 11.6707 29.7978 9.69565 28.2212 8.07272C26.6446 6.44979 24.7043 5.22561 22.5606 4.50147C20.417 3.77733 18.1318 3.57405 15.894 3.90845C13.6562 4.24286 11.5302 5.10532 9.69192 6.4245C7.85364 7.74367 6.35591 9.48162 5.32265 11.4946C4.2894 13.5075 3.75033 15.7375 3.75004 18.0002ZM18 32.2502C14.7288 32.2551 11.5563 31.1297 9.01937 29.0645C10.0405 27.6027 11.3997 26.4091 12.9812 25.5854C14.5627 24.7617 16.3198 24.3322 18.103 24.3335C19.8639 24.3321 21.5997 24.7508 23.1663 25.5549C24.733 26.359 26.0851 27.5253 27.1105 28.9568C24.5539 31.0891 21.3291 32.2548 18 32.2502Z" fill="#7D5FBA"/>
</svg>
