<svg width="20" height="20" fill="none" xmlns="http://www.w3.org/2000/svg"><path d="M10.222 0C6.24 0 3 3.25 3 7.243c0 4.957 6.463 12.233 6.738 12.54a.65.65 0 0 0 .968 0c.275-.307 6.738-7.583 6.738-12.54C17.444 3.25 14.204 0 10.222 0Zm0 10.887A3.643 3.643 0 0 1 6.59 7.243c0-2.01 1.63-3.644 3.633-3.644a3.643 3.643 0 0 1 3.634 3.644c0 2.01-1.63 3.644-3.634 3.644Z" fill="url(#a)"/><defs><radialGradient id="a" cx="0" cy="0" r="1" gradientUnits="userSpaceOnUse" gradientTransform="matrix(-6.9438 0 0 -165.169 10.245 10)"><stop stop-color="#8787D2"/><stop offset="1" stop-color="#8787D2"/></radialGradient></defs></svg>