<svg width="20" height="20" fill="none" xmlns="http://www.w3.org/2000/svg"><path d="M9.758 0C5.481 0 2 3.303 2 7.363c0 1.06.228 2.07.679 3.006 1.94 4.028 5.658 8.281 6.752 9.489.082.09.202.142.328.142a.442.442 0 0 0 .327-.142c1.093-1.207 4.812-5.46 6.753-9.49a6.87 6.87 0 0 0 .678-3.005c0-4.06-3.48-7.363-7.759-7.363Zm0 11.188c-2.222 0-4.03-1.716-4.03-3.825s1.808-3.825 4.03-3.825c2.222 0 4.03 1.716 4.03 3.825s-1.807 3.825-4.03 3.825Z" fill="url(#a)"/><defs><radialGradient id="a" cx="0" cy="0" r="1" gradientUnits="userSpaceOnUse" gradientTransform="matrix(-7.45952 0 0 -165.169 9.783 10)"><stop stop-color="#46CDAC"/><stop offset="1" stop-color="#46CDAC"/></radialGradient></defs></svg>